<svg width="308" height="511" fill="none" xmlns="http://www.w3.org/2000/svg"><path d="M70.15 321.833c-7.54 0-14.024-5.677-14.866-13.342-.9-8.219 5.033-15.615 13.252-16.515 62.996-6.897 156.438-59.737 188.689-91.988 18.398-18.398 25.081-38.177 20.426-60.462-4.309-20.652-18.695-43.678-41.596-66.58-22.906-22.905-45.928-37.288-66.58-41.6-22.293-4.651-42.068 2.031-60.462 20.426C76.758 84.027 23.922 177.465 17.021 240.46c-.897 8.219-8.28 14.157-16.511 13.252-8.219-.9-14.153-8.293-13.252-16.515 7.957-72.677 64.887-170.907 100.58-206.6C113.213 5.224 143.56-4.655 175.593 2.035c26.75 5.583 54.213 22.317 81.633 49.737 27.42 27.42 44.154 54.887 49.741 81.633 6.686 32.036-3.194 62.38-28.567 87.753-35.693 35.694-133.923 92.624-206.6 100.585a15.89 15.89 0 01-1.65.09z" fill="#FFA535"/><path d="M57.322 393.683a14.92 14.92 0 01-10.586-4.386l-127.04-127.038a14.973 14.973 0 010-21.174l42.348-42.345c5.848-5.848 15.326-5.848 21.175 0l127.037 127.038c5.849 5.848 5.849 15.326 0 21.174l-42.344 42.345a14.929 14.929 0 01-10.59 4.386zM-48.546 251.67L57.322 357.538l21.174-21.175L-27.371 230.5l-21.175 21.17z" fill="#FFA535"/><path d="M-102.356 511.021a14.96 14.96 0 01-10.585-4.386l-84.697-84.693a14.974 14.974 0 01-4.082-13.584l15.681-76.704c5.466-26.73 20.114-50.954 41.249-68.202 21.131-17.252 47.795-26.753 75.079-26.753 8.265 0 14.971 6.706 14.971 14.971 0 8.269-6.706 14.975-14.971 14.975-41.994 0-78.58 29.861-86.99 71.005l-14.067 68.813 73.305 73.305 68.814-14.067c41.144-8.413 71.004-44.995 71.004-86.989 0-8.269 6.706-14.971 14.972-14.971 8.269 0 14.975 6.702 14.975 14.971 0 27.284-9.501 53.947-26.754 75.079-17.252 21.135-41.47 35.783-68.2 41.249l-76.706 15.677c-.998.206-2 .304-2.998.304zm221.944-391.34c-2.928 0-5.887-.858-8.48-2.644-6.811-4.69-8.531-14.016-3.84-20.823l59.499-86.39c4.69-6.806 14.012-8.526 20.819-3.836 6.811 4.69 8.531 14.013 3.841 20.824l-59.496 86.385a14.95 14.95 0 01-12.343 6.484zm84.719 84.693a14.959 14.959 0 01-12.344-6.48c-4.69-6.811-2.971-16.133 3.841-20.823l86.385-59.499c6.811-4.691 16.133-2.971 20.823 3.84 4.69 6.807 2.971 16.133-3.84 20.823l-86.385 59.496a14.913 14.913 0 01-8.48 2.643zm-42.359-42.349a14.911 14.911 0 01-10.585-4.386c-5.848-5.844-5.848-15.326 0-21.174l84.693-84.693c5.848-5.848 15.326-5.848 21.174 0 5.848 5.848 5.848 15.326 0 21.174l-84.693 84.693a14.936 14.936 0 01-10.589 4.386z" fill="#FFA535"/></svg>