<svg width="237" height="464" fill="none" xmlns="http://www.w3.org/2000/svg"><path d="M126.912 149.776l19.936-19.936-8.288-9.088-19.032 19.032 7.384 9.992zm-17-23l17.864-17.856-8.288-9.088-16.96 16.952 7.384 9.992zm-17-23l15.784-15.784-8.288-9.088-14.88 14.88 7.384 9.992zm-17-23l13.704-13.712-8.288-9.08-12.8 12.8 7.384 9.992zm108.537 90.304l-7.736-8.48-14.088 14.088c7.792.528 15.408-1.472 21.824-5.608zm-38.739-.104l20.208-20.216-8.288-9.088-21.056 21.056c2.56 3.32 5.688 6.04 9.136 8.248zM51.464 25.224l-8.288-9.088-8.648 8.656 7.384 9.984 9.552-9.552zM154.649 426.2c-6.568-7.624-10.272-17.544-10.696-28.696a63.976 63.976 0 00-9.232-30.72c-8.976-14.76-7.648-35.336 3.096-47.856l7.352-8.576c6.328-7.384 14.176-13.088 22.864-16.904l-18.224-3.04c-4.008-.664-7.808-1.968-11.344-3.736l-23.04 28.304c-9.656 11.864-23.936 19.544-39.168 21.072-30.472 3.032-55.528 25.976-59.584 54.544-2.928 20.64 3.84 40.744 18.576 55.16 14.736 14.416 35.032 20.72 55.656 17.36 10.352-1.704 20.256-6.112 28.64-12.736 9.616-7.592 23.336-6.824 31.904 1.76l9.24 9.24a8.9 8.9 0 006.344 2.624c4.944 0 8.968-4.024 8.968-8.968 0-2.616-.944-5.16-2.656-7.144L154.649 426.2zM80.001 440c-22.088 0-40-17.912-40-40s17.912-40 40-40 40 17.912 40 40-17.912 40-40 40zM367.854 58.264a50.854 50.854 0 008.144-27.64c0-9.416-2.776-18.408-7.928-26.04L220.078 186.408l38.128 41.816 109.648-169.96zm-297.31-12.12l-8.288-9.088-10.728 10.728 7.384 9.992 11.632-11.632z" fill="#FFA535"/><path d="M431.04 461.032l-35.472-14.184c-11.456-4.584-17.488-17.128-14.032-29.168 2.44-8.504 3.072-17.368 1.896-26.344-3.784-28.944-28.576-52.168-58.96-55.208-15.632-1.568-30.224-9.504-40.04-21.776l-1.912-2.4c-6.784-8.464-10.52-19.12-10.52-29.984v-11.776c0-2-.744-3.904-2.088-5.384l-74.616-81.832c-8.8 6.336-19.36 9.816-30.28 9.816a51.933 51.933 0 01-41.784-21.064L13.472 23.208 32.376 4.304C29.824 1.584 26.248 0 22.504 0c-2.672 0-5.256.784-7.488 2.264l-9.64 6.432A12.04 12.04 0 000 18.744c0 2.072.536 4.12 1.552 5.92L135.464 262.72c3.584 6.376 9.768 10.712 16.968 11.904l46.488 7.752c24.032 4 46 16.4 61.864 34.904l1.384 1.6c10.664 12.448 12.4 33.384 3.888 46.68-8.272 12.928-11.536 27.952-9.432 43.44 3.752 27.648 25.584 49.928 53.088 54.192A66.3 66.3 0 00320 464h110.464c.848 0 1.536-.688 1.536-1.536 0-.632-.376-1.2-.96-1.432zM200 264c-8.84 0-16-7.16-16-16s7.16-16 16-16 16 7.16 16 16-7.16 16-16 16zm120 176c-22.088 0-40-17.912-40-40s17.912-40 40-40 40 17.912 40 40-17.912 40-40 40z" fill="#FFA535"/></svg>