<svg width="18" height="14" fill="none" xmlns="http://www.w3.org/2000/svg"><path d="M15.735.906H2.3c-.22 0-.427.053-.614.141l7.3 7.165 1.636-1.543 5.727-5.622a1.438 1.438 0 00-.614-.14zm1.29.804L11.635 7l5.39 5.29c.089-.183.143-.386.143-.602V2.312c0-.216-.054-.419-.143-.602zm-16.015 0a1.372 1.372 0 00-.143.602v9.375c0 .217.054.42.143.603L6.4 7 1.01 1.71z" fill="#FFA535"/><path d="M10.96 7.663L9.323 9.206a.48.48 0 01-.675 0L7.075 7.663l-5.39 5.29c.188.088.394.14.615.14h13.435c.22 0 .427-.053.614-.14l-5.39-5.29z" fill="#FFA535"/></svg>