<svg width="364" height="157" fill="none" xmlns="http://www.w3.org/2000/svg"><g clip-path="url(#clip0)"><path d="M116.039 61.584c.012 9.92-.253 19.814-1.865 29.638-2.671 16.287-9.533 30.416-21.28 42.086-9.812 9.748-21.381 16.89-33.734 22.865-.47.227-1.295.118-1.784-.159-6.267-3.53-12.686-6.834-18.703-10.759-10.491-6.829-19.379-15.385-25.967-26.171C4.942 106.38 1.877 92.329 1.25 77.692c-.429-10-.28-20.025-.383-30.04 0-.374.052-.748.088-1.241C6.81 48.78 12.67 49.925 19.1 48.732c-.605-.472-.986-.782-1.378-1.076-5.911-4.422-9.069-10.35-9.229-17.714-.241-10.814 4.11-19.71 11.807-27.079C21.401 1.81 22.687.95 23.89 0c.08.453.023.92-.163 1.34-2.048 5.46-2.944 11.056-2.176 16.896.988 7.526 5.417 12.569 12.391 14.013.92.19 1.696.201 2.253-.69.58-.928 1.457-1.02 2.473-1.102.927-.076 1.905-.472 2.71-.972 2.237-1.392 4.332-3.007 6.595-4.342 1.104-.65 1.897-1.187 1.664-2.627-.052-.323.36-.963.685-1.071 4.675-1.56 9.386-2.643 14.22-.59.46.213.952.354 1.456.418 1.038.096 1.429.628 1.248 1.613-.2 1.096.405 1.542 1.275 2.07 2.378 1.444 4.631 3.093 6.991 4.568.764.473 1.698.9 2.568.93 1.159.04 1.974.361 2.762 1.22.381.415 1.247.682 1.816.581 5.864-1.04 9.767-4.446 11.686-10.085 1.493-4.385 1.615-8.897.763-13.4-.547-2.914-1.443-5.763-2.212-8.749.508.354 1.013.665 1.476 1.03 8.052 6.355 12.776 14.673 13.883 24.836 1 9.174-2.077 16.797-9.775 22.261-.188.132-.348.305-.674.596 6.394 1.18 12.27.026 18.233-2.387.001 5.266-.003 10.246.002 15.227zm-49.192 44.882c.618 6.303-4.476 10.015-6.336 15.244-2.96-3.839-.76-8.734-3.017-12.896-1.323 2.874-1.992 5.685-2.433 8.569-.782 5.106.212 10.003 1.656 14.863.983 3.305 2.208 6.636 1.365 10.14-.488 2.021-1.423 3.933-2.12 5.798 6.215-1.327 12.918-7.76 13.511-13.691.265-2.652-.423-5.421-.825-8.114-.279-1.851-.882-3.65-1.208-5.496-.162-.915-.028-1.881-.028-3.291 2.11 3.993 4.174 7.497 5.843 11.181 1.31 2.889.967 4.801-.676 9.891.449-.212.804-.343 1.121-.538 6.114-3.765 9.44-9.357 9.938-16.405.756-10.714-2.813-19.997-10.282-27.681-3.506-3.607-7.738-5.133-12.741-3.387-.517.18-1 .458-1.531.708.512 2.105 2.079 3.15 3.651 4.174 2.55 1.653 5.204 3.166 7.645 4.968 3.038 2.242 5.535 5.011 6.107 8.948.307 2.125.292 4.29.422 6.438-3.601-4.933-5.965-7.255-10.063-9.423zm32.992 5.601c.171-.106.322-.142.354-.228 2.433-5.641 4.306-11.402 3.95-17.673-.255-4.485-1.935-8.272-5.498-11.11a55.597 55.597 0 00-3.062-2.265c-3.32-2.298-6.885-4.294-9.22-7.79l-.445.22c.343 1.106.537 2.288 1.06 3.297.773 1.478 1.912 2.767 2.658 4.25.89 1.77 1.531 3.675 2.342 5.664l-11.012-9.889c-1.014 4.077-1.628 8.193-1.396 12.416a25.111 25.111 0 002.563 9.825c3.683 7.458 5.826 15.256 5.514 23.639 0 .13.078.263.118.409 6.621-4.732 10.32-17.248-.707-30.213 7.59 4.245 12.408 10.334 12.781 19.448zM53.83 76.625c-.008 1.235.408 1.786 1.485 2.387 2.55 1.416 4.8.556 7.056-.555.317-.154.54-.802.55-1.227.053-2.337.026-4.675.026-7.013 0-14.382-.023-28.764.035-43.146 0-1.37-.434-2.013-1.72-2.056a185.78 185.78 0 00-5.878-.08c-1.21 0-1.561.618-1.553 1.836.055 8.333.028 16.668.028 25.003 0 8.284.027 16.568-.03 24.85zm50.373-21.945c-3.78.218-7.529-.183-11.08-1.476-1.65-.598-2.876-.265-4.2.59.533 1.779 1.151 3.541 1.57 5.356.211.911.295 1.985.01 2.845-.391 1.18-.214 2.124.538 2.95 1.469 1.589 2.917 3.232 4.584 4.596 2.27 1.86 4.84 3.356 7.098 5.228 4.516 3.736 6.095 8.502 4.739 14.299-.26 1.111.305 2.414.667 3.611 2.709-12.776 2.481-25.687 2.405-38.612-2.217.223-4.27.495-6.331.613zM9.156 87.98c-1.06-5.22.642-9.66 4.7-13.05 2.369-1.977 5.087-3.54 7.451-5.518 1.76-1.476 3.23-3.304 4.768-5.038.293-.33.52-1.001.39-1.382-.857-2.51-.069-4.808.75-7.117.235-.666.48-1.329.752-2.082-1.313-.696-2.447-1.212-4.092-.645-5.33 1.836-10.822 2.013-16.356.978-.34-.064-.69-.07-1.204-.118-.079 12.914-.305 25.756 2.3 38.475.576-1.45.885-2.825.545-4.502h-.004zm56.55-24.3c1.778-.324 3.467-.537 5.085-.997.366-.104.714-1.076.69-1.631-.185-4.259-.377-8.522-.742-12.768-.274-3.178-.808-6.334-1.284-9.939 3.921 7.318 5.166 15.013 6.787 22.753 3.687-1.379 6.878-3.152 9.46-5.893.274-.292.435-.959.303-1.327-3.45-9.66-8.278-18.325-17.439-23.782-.856-.511-1.736-.983-2.857-1.616l-.004 35.2zm20.536-25.452c5.087-1.697 9.444-4.402 12.453-8.99.069-.105.215-.159.48-.345-1.545 7.401-6.913 10.478-13.34 12.524l3.373 7.042c.5-.176 1.01-.329 1.501-.53 8.525-3.513 13.342-10.919 13.229-20.32-.065-5.396-1.598-10.396-4.075-15.139-.107-.205-.265-.385-.63-.905.514 6.025.215 11.546-2.71 16.576-3.015 5.193-7.85 7.571-13.652 8.541 1.23 2.271 1.226 2.265 3.371 1.546zm-31.329 99.879c-.497-1.888-1.295-3.737-2.21-5.467-1.137-2.144-2.52-4.16-3.834-6.209-2.997-4.669-5.889-9.379-6.379-15.154-1.9 4.115-2.965 8.369-2.525 12.913.36 3.717 1.682 7.106 3.79 10.15 2.675 3.866 5.456 7.658 8.194 11.487 2.445-1.676 3.764-4.696 2.97-7.72h-.006zM12.037 91.142c-.335 2.107-.306 4.43.222 6.481 1.262 4.887 2.92 9.678 4.418 14.498l.508-.043c.13-1.487.353-2.973.373-4.461.027-2.433.069-4.884-.158-7.303-.652-6.987.815-13.224 5.999-18.26 1.192-1.157 2.407-2.29 3.685-3.503-6.766.549-14.086 6.577-15.047 12.591zM83.493 66.81c2.473-1.84 4.454-4.057 4.195-7.473-.04-.535-.196-1.063-.333-1.77-1.016.808-1.85 1.534-2.748 2.175-5.3 3.76-11.326 5.562-17.666 6.433-1.06.145-1.356.509-1.32 1.512.062 1.81.017 3.625.017 5.557 6.58-.866 12.627-2.543 17.855-6.434zM46.13 61.928c-3.979-1.324-7.682-3.145-10.726-6.127-.59-.579-.879-1.078-.548-1.983 3.259-8.926 7.773-16.953 15.63-22.72.583-.429.61-1.62.894-2.455l-.416-.319c-.51.254-1.034.483-1.53.766-6.296 3.602-10.996 8.774-14.37 15.13-1.563 2.943-2.73 6.098-4.129 9.133-.43.936-.252 1.55.482 2.252 3.9 3.741 8.705 5.665 13.814 6.963 1.836.472 3.723.735 5.586 1.094l.07-.348c-1.587-.458-3.19-.864-4.757-1.386zM29.205 44.947c-.36-.203-.69-.414-1.041-.582-9.094-4.326-13.77-13.139-12.203-23.164.483-3.092 1.163-6.152 1.803-9.497-.422.279-.598.33-.657.443-3.581 6.855-5.46 14.016-3.506 21.74 1.884 7.428 6.831 12.005 13.998 14.634.569-1.268 1.063-2.373 1.606-3.574zM66.023 80.02c-.575-.037-1.245.31-1.76.649-1.843 1.212-3.688 2.313-6.037 2.089-.3-.028-.862.382-.93.676-.203.876-.376 1.812-.28 2.693.247 2.262.983 2.629 3.02 1.77a38.332 38.332 0 013.274-1.195c1.884-.59 2.237-1.366 1.295-3.124 1.605-.041 2.152.856 2.12 2.243l5.423 1.398c4.946-6.618 5.725-8.306 5.263-11.846-3.066 3.811-6.938 4.937-11.388 4.647zm-14.668 17.6c1.79-.98 3.4-2.338 4.947-3.688.669-.582.979-1.579 1.464-2.407-7.478-3.383-12.458-1.237-15.17 4.234-1.248 2.515-2.183 5.186-3.336 7.969 4.273-2.138 8.247-4.006 12.095-6.109zm-19.944-2.75c-4.758 3.95-7.758 8.894-8.494 15.125-.671 5.678 2.52 11.903 7.505 14.2-5.704-11.069-3.52-21.125 3.43-30.627l-.284-.26c-.721.52-1.475.992-2.157 1.561zm64.583-17.31a74.309 74.309 0 008.198 2.662c-1.12-1.23-2.133-2.585-3.388-3.659-1.571-1.342-3.313-2.491-5.032-3.65-2.648-1.786-5.198-3.666-7.02-6.4-.109 5.277 2.47 9.181 7.242 11.047zm-65.91-14.011c.909 1.31 2.013 2.596 3.298 3.52 5.238 3.75 11.306 5.203 17.622 5.868-.607-.186-1.234-.325-1.818-.567-3.637-1.511-7.374-2.833-10.859-4.636-2.814-1.46-4.984-3.635-5.612-7.157-.2-1.124-1.985-1.965-3.22-3.096-.67 2.305-.623 4.319.589 6.068zm18.6 22.434c-2.044-1.803-3.733-3.725-4.345-6.373-.056-.247-.345-.472-.575-.644-1.457-1.062-2.93-2.102-4.343-3.112-.668 2.422.169 4.59 4.542 11.437l4.721-1.308zM21.95 75.716c3.56-1.99 5.796-4.967 6.136-9.234-3.121 4.357-7.996 6.54-11.907 9.898-1.307 1.121-2.39 2.506-3.575 3.77l.334.236c3.005-1.546 6.056-3.018 9.012-4.667v-.003zm14.015 34.872c-4.344 6.647-4.144 17.199 1.013 22.934-2.09-7.686-2.247-15.175-1.013-22.934zm18.148-10.74c3.356 1.338 7.922 1.134 9.99-.447-5.525-3.087-6.593-3.05-9.99.447zM31.47 83.375c1.854-1.684 2.665-3.858 3.1-5.94-1.667 1.491-3.444 3.123-5.266 4.708-1.87 1.622-2.852 3.626-2.864 5.964 1.677-1.584 3.328-3.187 5.03-4.732zm18.864-7.466c-2.702-.58-5.418-1.062-8.096-1.575.727 2.006 5.73 3.675 9.198 2.667-.452-.469-.726-1.011-1.102-1.092zm16.136 0c-.371.08-.641.628-1.116 1.125 3.86.842 7.662-.384 9.236-2.714-2.688.515-5.412 1.004-8.12 1.587v.002zm-13.802 9.324c-.043.495.404 1.032.635 1.55l.423-.159c-.03-.48-.1-.961-.077-1.44.024-.477.14-.965.216-1.447l-.377-.173c-.29.55-.769 1.088-.818 1.664l-.002.005z" fill="#FFA535"/><path d="M161.734 47.878l6.713 30.626c.618 3.008 3.092 3.008 3.71 0l6.713-30.626c.177-.797.795-1.328 1.59-1.328h5.83c1.325 0 2.12 1.063 1.855 2.39l-12.808 58.241c-.177.796-.795 1.327-1.59 1.327h-6.89c-.795 0-1.413-.531-1.59-1.327l-12.895-58.24c-.265-1.329.53-2.39 1.855-2.39h5.917c.795 0 1.413.53 1.59 1.327zm3.091 2.655l5.919 27.085a1.13 1.13 0 00-.089.532c-.088.62-.265 1.15-.353 1.15-.088 0-.265-.354-.353-1.062l-6.36-28.944c.618.089 1.06.62 1.236 1.24zm3.534 59.484h5.388c1.502 0 2.737-.974 3.09-2.479l12.809-58.24v-.089c1.148.177 1.855 1.151 1.59 2.39l-12.809 58.237c-.176.797-.795 1.328-1.59 1.328h-6.888c-.795 0-1.325-.443-1.59-1.151v.004zm39.302-61.697v58.421a1.773 1.773 0 01-1.767 1.771h-6.183a1.765 1.765 0 01-1.766-1.771v-58.42a1.765 1.765 0 011.766-1.77h6.183a1.767 1.767 0 011.767 1.77zm-6.537 61.693h4.77a3.313 3.313 0 002.297-.974 3.33 3.33 0 00.972-2.301V49.206a1.811 1.811 0 011.589 1.77v58.421c0 .469-.187.92-.518 1.252a1.764 1.764 0 01-1.249.518h-6.183a1.846 1.846 0 01-1.678-1.154zm29.501-61.693v15.756c0 2.655 1.943 3.098 3.18.796l8.92-17.436a1.582 1.582 0 011.414-.886h5.211c1.767 0 2.739 1.594 1.944 3.187l-9.805 19.12c-.619 1.15-.707 2.213-.265 3.54L252 105.854c.442 1.416-.441 2.656-1.855 2.656h-5.741c-.795 0-1.414-.443-1.59-1.151l-6.801-20.801c-.706-2.302-2.385-2.568-3.356-.532l-1.237 2.39c-.618 1.063-.795 1.948-.795 3.275v15.047a1.767 1.767 0 01-1.767 1.77h-6.183a1.764 1.764 0 01-1.766-1.77v-58.42a1.765 1.765 0 011.766-1.77h6.183a1.76 1.76 0 011.251.519 1.78 1.78 0 01.516 1.254zm-6.536 61.693h4.769a3.327 3.327 0 003.269-3.275V91.691c0-1.062.088-1.681.618-2.567.353-.796.972-1.681 1.325-2.478h-.088c.176-.266.441-.088.618.354l.707 2.39-.795 1.682c-.619 1.062-.795 1.947-.795 3.275v15.047a1.769 1.769 0 01-1.767 1.77h-6.183a1.855 1.855 0 01-1.678-1.151zm9.628-48.238l-1.237 2.389c-.177.177-.353.177-.353-.088V49.205c.434.052.834.26 1.126.586.292.326.457.746.464 1.184v10.8zm12.188 48.238h4.24c2.474 0 4.064-2.124 3.269-4.603l-10.777-33.457c-.353-.885-.265-1.593.177-2.39l9.805-19.119c.176-.354.265-.797.353-1.15 1.413.265 2.12 1.681 1.413 3.097l-9.805 19.12c-.618 1.15-.706 2.213-.265 3.54l10.776 33.457c.441 1.417-.442 2.656-1.854 2.656h-5.746c-.791 0-1.414-.443-1.586-1.151zm26.852-61.693v58.421a1.773 1.773 0 01-1.766 1.771h-6.185a1.765 1.765 0 01-1.766-1.771v-58.42a1.765 1.765 0 011.766-1.77h6.183a1.764 1.764 0 011.768 1.77zm-6.538 61.693h4.77a3.315 3.315 0 002.296-.974 3.33 3.33 0 00.972-2.301V49.206a1.81 1.81 0 011.59 1.77v58.421c0 .469-.187.92-.518 1.252a1.764 1.764 0 01-1.249.518h-6.182a1.851 1.851 0 01-1.679-1.154zm29.501-62.312l8.391 26.465c.618 1.859 2.385 1.594 2.385-.354V48.32a1.765 1.765 0 011.766-1.77h6.184a1.766 1.766 0 011.766 1.77v58.421a1.773 1.773 0 01-1.766 1.771h-6.449c-.795 0-1.413-.443-1.59-1.151l-8.303-26.465c-.617-1.858-2.384-1.593-2.384.354v25.492a1.773 1.773 0 01-1.766 1.771h-6.184a1.765 1.765 0 01-1.766-1.771v-58.42a1.765 1.765 0 011.766-1.77h6.36c.795 0 1.414.442 1.59 1.15zm-6.536 62.316h4.77a3.321 3.321 0 003.268-3.276V83.019l1.589 5.134v21.244a1.771 1.771 0 01-1.767 1.77h-6.183a1.851 1.851 0 01-1.677-1.154v.004zm9.627-59.657l6.183 19.561v2.124l-7.242-22.747a1.59 1.59 0 011.059 1.058v.004zm10.688 59.657h4.947a3.327 3.327 0 003.267-3.276V49.206a1.808 1.808 0 011.59 1.77v58.421a1.771 1.771 0 01-1.767 1.77h-6.446c-.796-.003-1.413-.446-1.591-1.154v.004zm34.004-64.529c10.069 0 16.517 6.196 16.517 15.845v3.894a1.765 1.765 0 01-1.766 1.77h-6.178a1.765 1.765 0 01-1.766-1.77v-3.894c0-3.01-.795-6.108-6.801-6.108-6.095 0-6.978 3.098-6.978 6.108v32.394c0 3.01.883 6.107 6.978 6.107 6.007 0 6.801-3.097 6.801-6.107v-3.629c0-2.567-.882-3.983-2.561-3.983h-2.561a1.767 1.767 0 01-1.767-1.77V78.15a1.767 1.767 0 011.767-1.77h13.073a1.765 1.765 0 011.766 1.77v15.579c0 9.647-6.448 15.843-16.517 15.843-10.246 0-16.517-6.196-16.693-15.755V61.243c.173-9.559 6.44-15.755 16.686-15.755zm-5.476 48.24V61.332c0-2.302.706-4.603 5.476-4.603 2.12 0 3.357.531 4.152 1.24a4.285 4.285 0 00-1.06-.09c-6.095 0-6.978 3.099-6.978 6.107v33.547c-1.321-.886-1.59-2.302-1.59-3.807zm.176 16.728c1.59.442 3.357.619 5.3.619 10.954 0 18.02-6.815 18.02-17.349V79.035a1.808 1.808 0 011.59 1.77v15.579c0 9.647-6.448 15.843-16.517 15.843-3.269-.001-6.008-.62-8.393-1.771zm8.392-22.836h1.148c.442 0 .707.442.884 1.15h-.354a1.727 1.727 0 01-1.678-1.15zm6.889-19.12h4.77a3.315 3.315 0 002.296-.974 3.33 3.33 0 00.972-2.3V61.33c0-2.32-.388-4.624-1.148-6.815 1.766 2.478 2.738 5.753 2.738 9.47v3.894a1.767 1.767 0 01-1.767 1.77h-6.183a1.724 1.724 0 01-1.672-1.148h-.006zm-194.638 62.439h-2.293v6.91h-1.674v-6.904h-2.281v-1.605h6.242l.006 1.599zm9.611 4.432c0 1.458-1.177 2.467-2.644 2.467h-3.602v-8.509h3.348c1.431 0 2.584.973 2.584 2.395a2.113 2.113 0 01-.801 1.702 2.152 2.152 0 011.115 1.945zm-4.573-4.473v1.876h1.675a.938.938 0 000-1.872l-1.675-.004zm2.912 4.366a.99.99 0 00-.065-.384.962.962 0 00-.918-.612h-1.929v2.007h1.929a.958.958 0 00.71-.291.97.97 0 00.273-.718v-.002zm4.789-1.675a4.429 4.429 0 012.728-4.079 4.41 4.41 0 012.548-.248 4.41 4.41 0 013.46 3.477 4.414 4.414 0 01-4.332 5.275 4.374 4.374 0 01-3.129-1.286 4.38 4.38 0 01-1.275-3.139zm7.146 0c0-1.64-1.201-2.796-2.742-2.796-1.54 0-2.742 1.156-2.742 2.796 0 1.641 1.202 2.784 2.742 2.784 1.541 0 2.742-1.155 2.742-2.784zm10.19-.932l-3.64 5.193h-1.272v-8.51h1.674v5.203l3.639-5.203h1.275v8.51h-1.676v-5.193zm-3.38-5.462h3.518v1.362h-3.518v-1.362zm20.582 7.999c0 1.567-1.165 2.649-2.815 2.649h-3.251v-8.509h5.338v1.605h-3.664v1.617h1.577c1.65 0 2.815 1.081 2.815 2.638zm-1.662 0c0-.708-.522-1.071-1.153-1.071h-1.577v2.152h1.577c.631 0 1.153-.365 1.153-1.081zm11.185-3.003c0 1.592-1.261 2.856-2.9 2.856h-1.491v2.802h-1.674v-8.509h3.167c1.637-.006 2.898 1.258 2.898 2.851zm-1.662 0c0-.742-.521-1.289-1.238-1.289h-1.491v2.58h1.493c.715 0 1.236-.561 1.236-1.291zm11.175-2.857l-2.548 6.163c-.707 1.714-1.831 2.431-3.347 2.346v-1.568c.934.085 1.443-.28 1.795-.996l-2.774-5.945h1.675l1.856 4.108 1.674-4.108h1.669zm8.948 1.605h-2.293v6.91h-1.674v-6.904h-2.281v-1.605h6.248v1.599zm7.69 5.376h-3.385l-.51 1.534h-1.806l2.971-8.509h2.075l2.984 8.509h-1.82l-.509-1.534zm-.522-1.567l-1.164-3.477-1.165 3.477h2.329zm5.548 1.54c.934.133 1.504-.236 1.504-1.922v-5.032h5.771v8.515h-1.659v-6.904h-2.45v3.379c0 3.069-1.589 3.683-3.166 3.525v-1.561zm17.346-1.301c0 1.592-1.261 2.856-2.9 2.856h-3.165v-8.509h1.673v2.796h1.494c1.637 0 2.898 1.264 2.898 2.857zm-1.662 0c0-.729-.522-1.289-1.238-1.289h-1.492v2.577h1.494c.714 0 1.236-.55 1.236-1.288zm11.669-5.653v8.515h-1.661v-3.525h-3.154v3.525h-1.674v-8.509h1.674v3.379h3.154v-3.379l1.661-.006zm4.005 0h1.675v2.796h1.492c1.637 0 2.898 1.264 2.898 2.857 0 1.594-1.261 2.856-2.898 2.856h-3.167v-8.509zm3.167 6.941c.715 0 1.236-.547 1.236-1.288s-.521-1.289-1.236-1.289h-1.492v2.577h1.492zm3.674-6.941h1.662v8.515h-1.662v-8.515zm10.577 3.323l-3.64 5.193h-1.274v-8.51h1.677v5.203l3.639-5.203h1.274v8.51h-1.674l-.002-5.193zm-3.385-5.459h3.518v1.362h-3.518v-1.362zm19.433 5.458l-3.639 5.193h-1.278v-8.509h1.675v5.202l3.639-5.202h1.281v8.509h-1.673l-.005-5.193zm13.989 5.193h-1.662v-5.518l-2.39 3.95h-.194l-2.39-3.939v5.507h-1.667v-8.509h1.723l2.438 4.023 2.426-4.023h1.722l-.006 8.509zm8.916-5.193l-3.639 5.193h-1.275v-8.509h1.675v5.202l3.639-5.202h1.274v8.509h-1.674v-5.193zm13.113 3.582v3.234h-1.674v-1.623h-4.694v1.629h-1.675v-3.234h.825c.399-.558.706-1.385.706-2.881v-4.023h5.605v6.904l.907-.006zm-2.584 0v-5.336h-2.257v2.479c0 1.459-.266 2.31-.581 2.856l2.838.001zm14.293 1.612l-2.632-3.879v3.879h-1.674v-3.879l-2.636 3.879h-1.856l2.944-4.34-2.826-4.17h1.856l2.511 3.793v-3.793h1.673v3.789l2.511-3.794h1.87l-2.84 4.17 2.961 4.34-1.862.005z" fill="#F0E6E6"/></g><defs><clipPath id="clip0"><path fill="#fff" transform="translate(.867)" d="M0 0h362.245v156.295H0z"/></clipPath></defs></svg>