<svg width="23" height="22" fill="none" xmlns="http://www.w3.org/2000/svg"><path d="M19.287 0H3.405C1.59 0 .115 1.446.115 3.223v15.554C.114 20.554 1.59 22 3.404 22h15.882c1.815 0 3.29-1.446 3.29-3.223V3.223c0-1.777-1.475-3.223-3.29-3.223zM11.39 16.758c-3.266 0-5.923-2.602-5.923-5.801 0-3.199 2.657-5.8 5.923-5.8s5.923 2.601 5.923 5.8-2.657 5.8-5.923 5.8zm6.581-10.313c-1.088 0-1.974-.867-1.974-1.933s.886-1.934 1.974-1.934c1.089 0 1.974.868 1.974 1.934 0 1.066-.885 1.933-1.974 1.933z" fill="#696866"/><path d="M17.968 3.867a.652.652 0 00-.658.644c0 .356.295.645.658.645a.652.652 0 00.658-.645.652.652 0 00-.658-.644zm-6.579 2.578c-2.54 0-4.607 2.024-4.607 4.512 0 2.487 2.067 4.511 4.607 4.511s4.607-2.024 4.607-4.511c0-2.488-2.067-4.512-4.607-4.512z" fill="#696866"/></svg>