<svg width="157" height="68" fill="none" xmlns="http://www.w3.org/2000/svg"><g clip-path="url(#clip0)"><path d="M49.917 26.635c.005 4.29-.11 8.57-.809 12.819-1.157 7.044-4.131 13.155-9.222 18.203-4.253 4.216-9.267 7.305-14.62 9.889-.205.098-.562.05-.774-.069-2.716-1.526-5.498-2.956-8.106-4.653-4.547-2.954-8.4-6.654-11.255-11.32C1.766 46.01.438 39.934.166 33.603-.02 29.277.046 24.942 0 20.61c0-.162.023-.324.039-.537 2.536 1.024 5.076 1.52 7.864 1.004-.263-.204-.428-.338-.598-.465-2.562-1.913-3.93-4.477-4-7.662-.104-4.677 1.781-8.524 5.118-11.712C8.9.783 9.457.411 9.978 0a.999.999 0 01-.07.58C9.02 2.94 8.63 5.36 8.964 7.886c.429 3.255 2.348 5.436 5.37 6.061.4.082.736.087.977-.299.251-.4.632-.44 1.072-.476.402-.033.826-.204 1.174-.42.97-.603 1.878-1.301 2.859-1.878.479-.282.822-.514.721-1.137-.022-.14.156-.416.297-.463 2.026-.674 4.068-1.143 6.163-.255.2.092.413.153.631.18.45.042.62.272.54.698-.086.474.177.667.554.896 1.03.624 2.007 1.337 3.03 1.976.33.204.735.389 1.113.401.502.018.855.157 1.196.528.166.18.541.295.788.252 2.541-.45 4.233-1.923 5.064-4.362.648-1.897.7-3.848.331-5.796-.237-1.26-.625-2.492-.959-3.784.22.153.44.288.64.445 3.49 2.75 5.538 6.347 6.017 10.742.434 3.968-.9 7.265-4.236 9.628-.082.058-.151.132-.292.258 2.77.51 5.317.011 7.902-1.032 0 2.277-.002 4.431 0 6.585zm-21.32 19.412c.267 2.726-1.94 4.332-2.746 6.594-1.283-1.661-.33-3.778-1.308-5.578-.573 1.243-.863 2.459-1.055 3.706-.339 2.208.092 4.326.718 6.428.426 1.43.957 2.87.591 4.386-.21.874-.616 1.7-.918 2.507 2.693-.573 5.599-3.356 5.856-5.92.114-1.148-.184-2.345-.358-3.51-.12-.8-.382-1.579-.523-2.377-.07-.396-.013-.814-.013-1.424.915 1.727 1.81 3.243 2.533 4.836.567 1.25.419 2.077-.293 4.278.194-.092.348-.148.486-.233 2.65-1.628 4.091-4.047 4.307-7.095.328-4.634-1.22-8.649-4.456-11.972-1.52-1.56-3.354-2.22-5.523-1.465-.224.078-.433.198-.663.306.222.91.9 1.363 1.582 1.806 1.105.714 2.256 1.369 3.314 2.148 1.317.97 2.399 2.167 2.646 3.87.134.92.127 1.856.184 2.785-1.561-2.134-2.586-3.138-4.362-4.076zm14.299 2.422c.074-.045.139-.06.153-.098 1.054-2.44 1.866-4.931 1.712-7.644-.11-1.94-.839-3.577-2.383-4.804-.43-.342-.873-.668-1.327-.98-1.44-.994-2.984-1.857-3.997-3.37l-.192.096c.149.478.233.99.46 1.426.334.639.828 1.196 1.152 1.837.386.766.663 1.59 1.014 2.45l-4.772-4.277c-.44 1.764-.706 3.544-.605 5.37a10.843 10.843 0 001.11 4.25c1.597 3.225 2.526 6.598 2.39 10.224 0 .056.034.114.052.177 2.87-2.047 4.473-7.46-.307-13.068 3.29 1.836 5.378 4.47 5.54 8.411zM22.954 33.141c-.003.534.177.773.644 1.032 1.105.613 2.08.24 3.058-.24.137-.066.234-.347.239-.53.022-1.011.01-2.022.01-3.034 0-6.22-.009-12.44.016-18.66 0-.593-.188-.871-.745-.89a80.458 80.458 0 00-2.548-.034c-.524 0-.677.267-.673.794.024 3.604.012 7.209.012 10.813 0 3.583.012 7.166-.013 10.749zm21.832-9.492c-1.638.095-3.263-.079-4.802-.638-.715-.259-1.246-.115-1.82.255.231.77.499 1.532.68 2.317.092.394.128.859.005 1.23-.17.51-.093.919.233 1.276.637.687 1.264 1.398 1.987 1.988.984.804 2.097 1.452 3.076 2.261 1.957 1.616 2.642 3.677 2.054 6.184-.112.481.132 1.045.29 1.562 1.173-5.525 1.074-11.11 1.042-16.7-.962.097-1.851.214-2.745.265zM3.593 38.052c-.46-2.258.278-4.178 2.037-5.644 1.027-.855 2.205-1.531 3.23-2.387.762-.638 1.4-1.429 2.066-2.179.127-.142.225-.433.168-.598-.37-1.085-.03-2.08.326-3.078.102-.288.208-.574.326-.9-.57-.301-1.061-.524-1.774-.28-2.31.795-4.69.872-7.089.424-.147-.028-.299-.03-.521-.051-.035 5.585-.133 11.14.996 16.64.25-.626.384-1.221.236-1.947h-.001zm24.509-10.51c.77-.14 1.503-.232 2.204-.431.159-.045.31-.465.299-.706-.08-1.841-.163-3.685-.322-5.522-.119-1.374-.35-2.74-.556-4.298 1.7 3.164 2.239 6.493 2.941 9.84 1.598-.596 2.981-1.363 4.1-2.549.12-.126.189-.414.132-.573-1.496-4.178-3.588-7.926-7.558-10.287-.371-.22-.753-.425-1.239-.698l-.001 15.224zm8.9-11.008c2.205-.734 4.094-1.904 5.398-3.888.03-.046.093-.069.208-.15-.67 3.201-2.997 4.532-5.782 5.417l1.462 3.046c.217-.076.438-.142.65-.23 3.695-1.519 5.783-4.722 5.734-8.788-.028-2.334-.693-4.496-1.766-6.548-.047-.088-.115-.166-.273-.391.223 2.606.093 4.994-1.174 7.17-1.308 2.245-3.403 3.274-5.918 3.693.534.982.532.98 1.462.67zM23.424 59.732c-.215-.816-.561-1.616-.957-2.364-.493-.928-1.093-1.8-1.662-2.686-1.3-2.02-2.552-4.056-2.765-6.554-.823 1.78-1.285 3.62-1.094 5.585.156 1.608.729 3.073 1.642 4.39 1.16 1.672 2.365 3.312 3.552 4.968 1.06-.725 1.631-2.031 1.287-3.339h-.003zM4.841 39.42c-.145.91-.132 1.916.097 2.803.547 2.113 1.265 4.185 1.915 6.27l.22-.018c.056-.644.153-1.286.161-1.93.012-1.052.03-2.112-.068-3.159-.283-3.021.353-5.72 2.6-7.897.516-.5 1.043-.99 1.597-1.515-2.933.237-6.105 2.845-6.522 5.446zm30.97-10.524c1.072-.796 1.93-1.755 1.818-3.233-.017-.23-.085-.459-.144-.765-.44.35-.802.663-1.191.94-2.297 1.627-4.91 2.406-7.657 2.783-.46.063-.587.22-.572.654.027.783.008 1.568.008 2.404 2.851-.375 5.472-1.1 7.738-2.783zm-16.194-2.111c-1.724-.573-3.329-1.36-4.648-2.65-.255-.25-.381-.467-.238-.858 1.413-3.86 3.37-7.333 6.775-9.827.252-.185.264-.7.387-1.062l-.18-.138c-.221.11-.448.21-.664.332-2.728 1.557-4.765 3.794-6.227 6.543-.678 1.273-1.183 2.638-1.79 3.95-.187.405-.11.67.209.974 1.69 1.619 3.773 2.45 5.987 3.012.796.204 1.613.318 2.421.473l.03-.15c-.687-.198-1.383-.374-2.061-.6zm-7.335-7.345c-.156-.088-.299-.18-.451-.252-3.941-1.871-5.968-5.683-5.289-10.019.21-1.337.504-2.66.782-4.107-.184.12-.26.143-.285.191-1.552 2.965-2.367 6.062-1.52 9.403.817 3.212 2.96 5.192 6.067 6.33.246-.549.46-1.027.696-1.546zM28.24 34.609c-.249-.016-.539.134-.762.28-.799.525-1.599 1-2.617.904-.13-.012-.373.165-.403.292-.088.38-.163.784-.12 1.165.106.978.425 1.137 1.307.766a16.6 16.6 0 011.42-.517c.816-.255.97-.591.56-1.351.697-.018.934.37.92.97l2.35.604c2.144-2.862 2.481-3.592 2.281-5.123-1.329 1.648-3.007 2.135-4.935 2.01zm-6.357 7.612c.776-.424 1.474-1.011 2.144-1.595.29-.252.424-.683.635-1.041-3.241-1.463-5.4-.535-6.575 1.831-.541 1.088-.946 2.243-1.446 3.447 1.852-.925 3.574-1.733 5.242-2.642zm-8.644-1.19c-2.062 1.709-3.362 3.847-3.681 6.542-.291 2.456 1.092 5.148 3.252 6.142-2.472-4.788-1.525-9.137 1.487-13.247l-.123-.112c-.312.225-.64.43-.935.675zm27.991-7.486a32.34 32.34 0 003.553 1.151c-.485-.532-.924-1.118-1.468-1.582-.681-.58-1.436-1.078-2.181-1.58-1.148-.772-2.253-1.585-3.043-2.767-.047 2.282 1.071 3.97 3.139 4.778zm-28.566-6.06c.394.567.872 1.123 1.43 1.522 2.27 1.622 4.9 2.25 7.637 2.538-.263-.08-.535-.14-.788-.245-1.576-.653-3.196-1.225-4.706-2.005-1.22-.632-2.16-1.572-2.433-3.096-.086-.485-.86-.85-1.395-1.338-.29.997-.27 1.867.255 2.624zm8.062 9.703c-.887-.78-1.619-1.611-1.883-2.756-.025-.108-.15-.205-.25-.28-.631-.459-1.27-.908-1.882-1.345-.29 1.047.073 1.985 1.968 4.947l2.047-.566zm-11.588-4.44c1.543-.861 2.512-2.149 2.66-3.995-1.353 1.885-3.466 2.83-5.16 4.282-.567.484-1.037 1.083-1.55 1.63l.144.102c1.303-.669 2.625-1.305 3.906-2.018v-.002zm6.075 15.081c-1.883 2.875-1.796 7.44.439 9.92-.906-3.325-.974-6.563-.44-9.92zm7.865-4.645c1.455.58 3.434.49 4.33-.193-2.395-1.335-2.858-1.319-4.33.193zm-9.814-7.124c.804-.728 1.155-1.668 1.344-2.569-.722.645-1.493 1.351-2.282 2.037-.811.7-1.236 1.568-1.242 2.579.727-.685 1.443-1.378 2.18-2.047zm8.176-3.229c-1.17-.25-2.348-.46-3.509-.681.315.868 2.484 1.59 3.987 1.154-.196-.203-.315-.438-.478-.473zm6.994 0c-.161.035-.278.272-.484.487 1.673.364 3.32-.166 4.003-1.174-1.165.223-2.346.434-3.52.686v.001zm-5.982 4.033c-.019.214.175.446.275.67l.183-.068c-.012-.208-.043-.416-.033-.623.01-.207.06-.418.094-.626l-.164-.075c-.126.238-.333.47-.355.72v.002z" fill="#FFA535"/><path d="M69.72 20.708l2.91 13.245c.268 1.301 1.34 1.301 1.608 0l2.91-13.245c.076-.345.344-.575.689-.575h2.526c.575 0 .92.46.804 1.034l-5.55 25.19c-.077.344-.345.574-.69.574h-2.986c-.345 0-.613-.23-.69-.575l-5.588-25.189c-.115-.574.23-1.034.804-1.034h2.564c.345 0 .613.23.69.575zm1.34 1.148l2.565 11.715a.486.486 0 00-.038.23c-.038.267-.115.497-.153.497-.038 0-.115-.153-.153-.46L70.524 21.32c.268.038.46.268.536.536zm1.532 25.727h2.335c.65 0 1.186-.421 1.34-1.072l5.55-25.19v-.038c.498.077.805.498.69 1.034l-5.551 25.188c-.077.344-.345.574-.69.574h-2.985c-.345 0-.574-.191-.69-.498v.002zm17.034-26.684v25.267a.766.766 0 01-.766.766h-2.68a.766.766 0 01-.766-.766V20.9a.766.766 0 01.766-.766h2.68a.766.766 0 01.766.766zm-2.834 26.682h2.068a1.438 1.438 0 001.416-1.416V21.282a.783.783 0 01.689.765v25.268a.766.766 0 01-.766.766h-2.68a.803.803 0 01-.727-.5zM99.58 20.899v6.814c0 1.149.842 1.34 1.378.345l3.866-7.542a.683.683 0 01.612-.383h2.259c.766 0 1.187.69.842 1.379l-4.249 8.269c-.268.498-.306.957-.115 1.531l4.671 14.47c.191.613-.192 1.15-.804 1.15h-2.489c-.344 0-.612-.192-.689-.499l-2.947-8.996c-.307-.996-1.034-1.11-1.455-.23l-.536 1.034c-.268.46-.345.842-.345 1.416v6.508a.766.766 0 01-.765.766h-2.68a.766.766 0 01-.766-.766V20.898a.766.766 0 01.766-.766h2.68a.765.765 0 01.765.767zm-2.834 26.682h2.068a1.438 1.438 0 001.416-1.416v-6.508c0-.46.039-.727.268-1.11.153-.345.421-.727.574-1.072h-.038c.077-.115.192-.038.268.153l.306 1.034-.344.727c-.268.46-.345.842-.345 1.417v6.508a.764.764 0 01-.765.765h-2.68a.803.803 0 01-.728-.498zm4.173-20.863l-.536 1.033c-.076.077-.153.077-.153-.038v-6.432a.781.781 0 01.689.766v4.671zm5.283 20.863h1.838c1.072 0 1.761-.918 1.416-1.99l-4.67-14.47c-.154-.383-.115-.69.076-1.034l4.25-8.27c.076-.153.114-.344.153-.497.612.114.919.727.612 1.34l-4.249 8.269c-.268.498-.307.957-.115 1.531l4.67 14.47c.191.613-.191 1.15-.803 1.15h-2.491c-.342 0-.612-.192-.687-.499zm11.635-26.682v25.267a.768.768 0 01-.766.766h-2.68a.764.764 0 01-.766-.766V20.9a.765.765 0 01.766-.766h2.68a.767.767 0 01.766.766zm-2.834 26.682h2.068a1.438 1.438 0 001.416-1.416V21.282a.784.784 0 01.689.765v25.268a.768.768 0 01-.766.766h-2.679a.805.805 0 01-.728-.5zm12.791-26.95l3.636 11.446c.268.804 1.034.69 1.034-.153V20.898a.764.764 0 01.765-.765h2.68a.768.768 0 01.766.765v25.268a.768.768 0 01-.766.766h-2.795c-.344 0-.612-.192-.689-.498l-3.598-11.447c-.268-.803-1.033-.688-1.033.154v11.025a.765.765 0 01-.766.766h-2.68a.764.764 0 01-.766-.766V20.9a.765.765 0 01.766-.766h2.756c.345 0 .613.192.69.498zm-2.834 26.952h2.068a1.436 1.436 0 001.416-1.417v-10.26l.689 2.22v9.189a.768.768 0 01-.766.766h-2.68a.804.804 0 01-.727-.5v.002zm4.173-25.802l2.68 8.46v.92l-3.139-9.84a.692.692 0 01.459.458v.002zm4.632 25.802h2.144a1.438 1.438 0 001.416-1.417V21.282a.782.782 0 01.689.765v25.268a.764.764 0 01-.765.766h-2.794c-.345-.002-.613-.193-.69-.5v.002zm14.737-27.909c4.364 0 7.158 2.68 7.158 6.853v1.684a.764.764 0 01-.765.766h-2.678a.765.765 0 01-.765-.766v-1.684c0-1.302-.345-2.642-2.948-2.642-2.641 0-3.024 1.34-3.024 2.642v14.01c0 1.302.383 2.642 3.024 2.642 2.604 0 2.948-1.34 2.948-2.641v-1.57c0-1.11-.383-1.723-1.11-1.723h-1.11a.768.768 0 01-.766-.765V33.8a.768.768 0 01.766-.766h5.666a.764.764 0 01.765.766v6.738c0 4.173-2.794 6.852-7.158 6.852-4.441 0-7.159-2.68-7.235-6.814V26.488c.075-4.134 2.791-6.814 7.232-6.814zm-2.374 20.864V26.527c0-.996.306-1.991 2.374-1.991.919 0 1.455.23 1.799.536a1.858 1.858 0 00-.459-.038c-2.642 0-3.025 1.34-3.025 2.64v14.51c-.572-.383-.689-.996-.689-1.646zm.077 7.235c.689.191 1.454.268 2.297.268 4.747 0 7.81-2.948 7.81-7.504v-6.354a.783.783 0 01.689.766v6.738c0 4.172-2.795 6.852-7.159 6.852-1.417 0-2.604-.269-3.637-.766zm3.637-9.877h.497c.192 0 .307.191.383.498h-.153a.751.751 0 01-.727-.498zm2.985-8.27h2.068a1.436 1.436 0 001.416-1.416v-1.684c0-1.004-.168-2-.498-2.948.766 1.072 1.187 2.488 1.187 4.096v1.684a.764.764 0 01-.765.766h-2.68a.748.748 0 01-.725-.497h-.003z" fill="#F0E6E6"/></g><defs><clipPath id="clip0"><path fill="#fff" d="M0 0h157v67.599H0z"/></clipPath></defs></svg>