<svg width="70" height="62" fill="none" xmlns="http://www.w3.org/2000/svg"><g clip-path="url(#clip0)" fill="#FFA535"><path d="M9.041 60.55c-2.988 0-5.42-2.172-5.42-4.843 0-.536.485-.969 1.085-.969s1.084.433 1.084.97c0 1.601 1.459 2.905 3.251 2.905.6 0 1.084.433 1.084.97 0 .535-.485.968-1.084.968z"/><path d="M4.706 56.676c-.6 0-1.084-.433-1.084-.969v-2.906c0-.536.484-.969 1.084-.969.6 0 1.084.433 1.084.969v2.906c0 .536-.486.969-1.084.969z"/><path d="M37.924 53.77H4.133c-.6 0-1.084-.433-1.084-.97 0-.535.485-.968 1.084-.968h33.791c.6 0 1.084.433 1.084.969s-.485.969-1.084.969zm.365 6.78H9.04c-.599 0-1.084-.432-1.084-.968s.485-.969 1.084-.969h29.25c.6 0 1.084.433 1.084.97 0 .535-.485.968-1.084.968z"/><path d="M4.15 53.771c-2.092 0-3.792-1.52-3.792-3.391 0-1.87 1.7-3.39 3.791-3.39.6 0 1.084.433 1.084.969s-.484.969-1.084.969c-.895 0-1.624.652-1.624 1.452 0 .801.729 1.454 1.624 1.454.6 0 1.084.433 1.084.969 0 .535-.484.968-1.084.968z"/><path d="M37.666 48.928H4.133c-.6 0-1.084-.433-1.084-.97 0-.535.485-.968 1.084-.968h33.533c.6 0 1.084.433 1.084.969 0 .535-.485.969-1.084.969zM4.7 41.178a1.15 1.15 0 01-.766-.284.897.897 0 010-1.37l3.252-2.906a1.176 1.176 0 011.533 0 .897.897 0 010 1.37l-3.252 2.906a1.15 1.15 0 01-.766.284z"/><path d="M11.204 41.178a1.15 1.15 0 01-.766-.284l-3.252-2.906a.897.897 0 010-1.37 1.176 1.176 0 011.533 0l3.252 2.906a.897.897 0 010 1.37 1.15 1.15 0 01-.767.284z"/><path d="M11.204 41.178a1.15 1.15 0 01-.766-.284.897.897 0 010-1.37l3.252-2.906a1.176 1.176 0 011.532 0 .897.897 0 010 1.37l-3.251 2.906a1.15 1.15 0 01-.767.284z"/><path d="M17.708 41.178a1.15 1.15 0 01-.766-.284l-3.252-2.906a.897.897 0 010-1.37 1.176 1.176 0 011.532 0l3.252 2.906a.897.897 0 010 1.37 1.15 1.15 0 01-.766.284z"/><path d="M17.708 41.178a1.15 1.15 0 01-.766-.284.897.897 0 010-1.37l3.251-2.906a1.176 1.176 0 011.533 0 .897.897 0 010 1.37l-3.252 2.906a1.15 1.15 0 01-.766.284z"/><path d="M24.211 41.178a1.15 1.15 0 01-.766-.284l-3.252-2.906a.897.897 0 010-1.37 1.176 1.176 0 011.533 0l3.252 2.906a.897.897 0 010 1.37 1.15 1.15 0 01-.767.284z"/><path d="M24.211 41.178a1.15 1.15 0 01-.766-.284.897.897 0 010-1.37l3.252-2.906a1.176 1.176 0 011.532 0 .897.897 0 010 1.37l-3.251 2.906a1.15 1.15 0 01-.767.284z"/><path d="M30.715 41.178a1.15 1.15 0 01-.767-.284l-3.251-2.906a.897.897 0 010-1.37 1.176 1.176 0 011.532 0l3.252 2.906a.897.897 0 010 1.37 1.15 1.15 0 01-.766.284z"/><path d="M30.715 41.178a1.15 1.15 0 01-.767-.284.897.897 0 010-1.37l3.252-2.906a1.176 1.176 0 011.533 0 .897.897 0 010 1.37l-3.252 2.906a1.15 1.15 0 01-.766.284z"/><path d="M37.218 41.178a1.15 1.15 0 01-.766-.284L33.2 37.988a.897.897 0 010-1.37 1.176 1.176 0 011.533 0l3.252 2.906a.897.897 0 010 1.37 1.15 1.15 0 01-.767.284zM4.15 46.021c-2.092 0-3.793-1.52-3.793-3.39s1.701-3.39 3.793-3.39c.6 0 1.084.432 1.084.968s-.484.969-1.084.969c-.896 0-1.625.652-1.625 1.453s.729 1.453 1.625 1.453c.6 0 1.084.433 1.084.969 0 .535-.484.968-1.084.968zm18.982 2.907c-.6 0-1.084-.433-1.084-.97v-2.905c0-.536.485-.97 1.084-.97.6 0 1.084.434 1.084.97v2.906c0 .535-.486.969-1.084.969z"/><path d="M37.25 41.178H4.134c-.6 0-1.084-.433-1.084-.97 0-.535.485-.968 1.084-.968H37.25c.6 0 1.084.433 1.084.969 0 .535-.485.969-1.084.969zm.261 4.843H4.151c-.6 0-1.085-.433-1.085-.968 0-.536.485-.97 1.084-.97h33.361c.6 0 1.084.434 1.084.97 0 .535-.484.968-1.084.968z"/><path d="M4.702 48.928c-.6 0-1.084-.433-1.084-.97v-2.905c0-.536.484-.97 1.084-.97.599 0 1.084.434 1.084.97v2.906c0 .536-.485.969-1.084.969zM3.618 35.363c-.6 0-1.084-.433-1.084-.968 0-4.808 4.376-8.72 9.755-8.72.6 0 1.084.434 1.084.97 0 .535-.485.968-1.084.968-4.183 0-7.587 3.043-7.587 6.782 0 .535-.485.968-1.084.968zm0 1.94c-.599 0-1.084-.433-1.084-.969 0-.535.484-.969 1.084-.969l33.43-.007c.6 0 1.085.433 1.085.968 0 .535-.485.97-1.084.97l-33.431.007z"/><path d="M3.618 37.303c-.6 0-1.084-.433-1.084-.969v-1.94c0-.535.484-.968 1.084-.968.6 0 1.084.433 1.084.969v1.939c0 .536-.485.969-1.084.969zm32.914-9.69H12.289c-.6 0-1.084-.433-1.084-.968 0-.536.485-.97 1.084-.97h24.243c.6 0 1.084.434 1.084.97 0 .535-.485.968-1.084.968zm-28.539 6.77c-.6 0-1.09-.433-1.09-.969s.48-.969 1.078-.969h.012c.599 0 1.084.433 1.084.969s-.485.969-1.084.969zm4.336-3.873c-.6 0-1.09-.433-1.09-.969s.48-.969 1.078-.969h.012c.598 0 1.084.433 1.084.97 0 .535-.486.968-1.084.968zm4.336 3.873c-.6 0-1.09-.433-1.09-.969s.48-.969 1.078-.969h.012c.598 0 1.083.433 1.083.969s-.485.969-1.084.969zM21 30.51c-.6 0-1.09-.433-1.09-.969s.48-.969 1.078-.969H21c.599 0 1.084.433 1.084.97 0 .535-.485.968-1.084.968zm4.336 3.873c-.6 0-1.09-.433-1.09-.969s.48-.969 1.078-.969h.012c.598 0 1.084.433 1.084.969s-.486.969-1.084.969zm4.336-3.873c-.6 0-1.09-.433-1.09-.969s.48-.969 1.078-.969h.012c.598 0 1.084.433 1.084.97 0 .535-.486.968-1.084.968zm4.335 3.873c-.6 0-1.09-.433-1.09-.969s.48-.969 1.078-.969h.012c.599 0 1.084.433 1.084.969s-.486.969-1.084.969z"/><path d="M62.133 60.55H38.288c-.579 0-1.056-.405-1.083-.921l-2.17-40.696a.916.916 0 01.298-.715c.204-.19.488-.3.785-.3h28.185c.296 0 .58.109.785.3.204.192.312.45.298.715l-2.17 40.696c-.027.516-.504.922-1.083.922zM39.32 58.614H61.1l2.066-38.757H37.255l2.066 38.757z"/><path d="M64.087 23.73H36.336c-.6 0-1.084-.433-1.084-.968 0-.536.484-.969 1.084-.969h27.751c.6 0 1.084.433 1.084.969 0 .535-.484.968-1.084.968zm-27.97-3.875c-.6 0-1.084-.433-1.084-.968 0-2.137 1.945-3.875 4.336-3.875.6 0 1.084.433 1.084.968 0 .536-.485.97-1.084.97-1.196 0-2.168.868-2.168 1.937 0 .535-.484.968-1.084.968zm28.187.001c-.6 0-1.084-.434-1.084-.97 0-1.068-.973-1.937-2.168-1.937-.6 0-1.084-.433-1.084-.968 0-.536.484-.97 1.084-.97 2.391 0 4.336 1.739 4.336 3.876 0 .535-.485.969-1.084.969z"/><path d="M61.05 16.95H39.37c-.6 0-1.084-.434-1.084-.97 0-.535.485-.968 1.084-.968h21.68c.6 0 1.084.433 1.084.968 0 .536-.484.97-1.084.97z"/><path d="M39.373 16.946c-.6 0-1.084-.433-1.084-.969 0-2.137 1.944-3.875 4.335-3.875.6 0 1.084.433 1.084.969s-.484.969-1.084.969c-1.195 0-2.168.869-2.168 1.937 0 .536-.484.969-1.083.969zm21.674-.001c-.6 0-1.084-.433-1.084-.968 0-1.069-.972-1.938-2.168-1.938-.6 0-1.084-.433-1.084-.969 0-.535.485-.968 1.084-.968 2.392 0 4.336 1.738 4.336 3.875 0 .535-.484.968-1.084.968z"/><path d="M57.796 14.04H42.625c-.6 0-1.084-.434-1.084-.97 0-.535.484-.968 1.084-.968h15.171c.6 0 1.084.433 1.084.968 0 .536-.484.97-1.084.97z"/><path d="M45.881 14.037c-.6 0-1.084-.433-1.084-.969 0-2.136 1.945-3.874 4.336-3.874.6 0 1.084.433 1.084.968 0 .536-.485.969-1.084.969-1.196 0-2.168.869-2.168 1.938 0 .535-.484.968-1.084.968z"/><path d="M53.453 11.13h-4.32c-.6 0-1.084-.432-1.084-.968s.484-.969 1.084-.969h4.32c.6 0 1.084.433 1.084.97 0 .535-.484.968-1.084.968z"/><path d="M53.455 14.043c-.6 0-1.084-.433-1.084-.969v-2.912c0-.535.485-.968 1.084-.968.6 0 1.084.433 1.084.968v2.912c0 .536-.484.97-1.084.97zm8.755 3.095c-.14 0-.281-.023-.418-.075-.553-.207-.813-.774-.582-1.268l6.435-13.751c.233-.494.868-.728 1.42-.52.552.207.812.774.581 1.268L63.21 16.543c-.175.372-.577.595-1 .595z"/></g><defs><clipPath id="clip0"><path fill="#fff" transform="translate(.357)" d="M0 0h69.371v62H0z"/></clipPath></defs></svg>