<svg width="73" height="65" fill="none" xmlns="http://www.w3.org/2000/svg"><path d="M34.223 13.2c0-.562-.508-1.016-1.137-1.016H6.951c-.628 0-1.136.454-1.136 1.016v50.784c0 .562.508 1.016 1.136 1.016h26.136c.629 0 1.137-.454 1.137-1.016v-4.066l-.001-.005V13.2zM8.087 37.575H31.95v21.327H8.087V37.575zm23.863-23.36v21.329H8.087V14.216H31.95zm.001 48.754H8.087v-2.036h23.864v2.036z" fill="#FFA535"/><path d="M13.201 21.324c1.567 0 2.841-1.139 2.841-2.54 0-1.4-1.274-2.538-2.84-2.538-1.568 0-2.842 1.138-2.842 2.539 0 1.4 1.274 2.539 2.841 2.539zm0-3.047c.313 0 .568.229.568.508 0 .28-.255.508-.568.508-.312 0-.568-.229-.568-.508 0-.28.256-.508.568-.508zm13.636 3.047c1.567 0 2.841-1.139 2.841-2.54 0-1.4-1.274-2.538-2.84-2.538-1.568 0-2.841 1.138-2.841 2.539 0 1.4 1.273 2.539 2.84 2.539zm0-3.047c.313 0 .569.229.569.508 0 .28-.256.508-.569.508-.312 0-.568-.229-.568-.508 0-.28.256-.508.568-.508zm-6.817 9.141c1.566 0 2.84-1.139 2.84-2.54 0-1.4-1.274-2.538-2.84-2.538-1.568 0-2.842 1.138-2.842 2.539 0 1.4 1.274 2.539 2.841 2.539zm0-3.047c.312 0 .567.228.567.508 0 .279-.255.507-.568.507-.312 0-.568-.228-.568-.507 0-.28.256-.508.568-.508zm-6.819 9.14c1.567 0 2.841-1.138 2.841-2.539 0-1.4-1.274-2.539-2.84-2.539-1.568 0-2.842 1.139-2.842 2.54 0 1.4 1.274 2.538 2.841 2.538zm0-3.047c.313 0 .568.229.568.508 0 .28-.255.508-.568.508-.312 0-.568-.228-.568-.508 0-.279.256-.508.568-.508zm13.636 9.141c-1.567 0-2.84 1.139-2.84 2.54 0 1.4 1.273 2.538 2.84 2.538s2.841-1.138 2.841-2.539c0-1.4-1.274-2.539-2.84-2.539zm0 3.047c-.312 0-.568-.229-.568-.508 0-.28.256-.508.568-.508.313 0 .569.229.569.508 0 .28-.256.508-.569.508zm-6.817 3.047c-1.568 0-2.842 1.138-2.842 2.539 0 1.4 1.274 2.539 2.841 2.539 1.567 0 2.841-1.139 2.841-2.54 0-1.4-1.274-2.538-2.84-2.538zm0 3.047c-.313 0-.569-.229-.569-.508 0-.28.256-.508.568-.508.313 0 .568.229.568.508 0 .28-.255.508-.568.508zm-6.819 3.047c-1.567 0-2.84 1.138-2.84 2.539 0 1.4 1.273 2.539 2.84 2.539s2.841-1.139 2.841-2.54c0-1.4-1.274-2.538-2.84-2.538zm0 3.047c-.312 0-.568-.229-.568-.508 0-.28.256-.508.568-.508.313 0 .568.229.568.508 0 .28-.255.508-.568.508zm13.636-21.329c1.567 0 2.841-1.138 2.841-2.539 0-1.4-1.274-2.539-2.84-2.539-1.568 0-2.841 1.139-2.841 2.54 0 1.4 1.273 2.538 2.84 2.538zm0-3.047c.313 0 .569.229.569.508 0 .28-.256.508-.569.508-.312 0-.568-.228-.568-.508 0-.279.256-.508.568-.508zm40.34-29.448C67.177.454 66.67 0 66.041 0H39.906c-.629 0-1.137.454-1.137 1.016V51.8c0 .562.508 1.016 1.137 1.016h26.136c.628 0 1.136-.454 1.136-1.016V1.016zM41.042 25.39h23.862v21.327H41.043V25.39zM64.904 2.03v21.33H41.043V2.031h23.862zm.002 48.753H41.042V48.75h23.864v2.035z" fill="#FFA535"/><path d="M59.796 39.611c-1.567 0-2.84 1.139-2.84 2.54 0 1.4 1.273 2.538 2.84 2.538s2.841-1.138 2.841-2.539c0-1.4-1.274-2.539-2.84-2.539zm0 3.047c-.312 0-.568-.228-.568-.508 0-.279.256-.508.568-.508.313 0 .568.229.568.508 0 .28-.255.508-.568.508zM46.16 39.611c-1.567 0-2.841 1.139-2.841 2.54 0 1.4 1.274 2.538 2.84 2.538 1.568 0 2.842-1.138 2.842-2.539 0-1.4-1.274-2.539-2.841-2.539zm0 3.047c-.313 0-.568-.228-.568-.508 0-.279.255-.508.568-.508.312 0 .568.229.568.508 0 .28-.256.508-.568.508zm13.636-15.234c-1.567 0-2.84 1.138-2.84 2.539 0 1.4 1.273 2.539 2.84 2.539s2.841-1.139 2.841-2.54c0-1.4-1.274-2.538-2.84-2.538zm0 3.047c-.312 0-.568-.229-.568-.508 0-.28.256-.508.568-.508.313 0 .568.229.568.508 0 .28-.255.508-.568.508zM46.16 21.33c1.567 0 2.84-1.138 2.84-2.539 0-1.4-1.273-2.54-2.84-2.54s-2.841 1.14-2.841 2.54c0 1.4 1.274 2.539 2.84 2.539zm0-3.047c.312 0 .568.229.568.508 0 .28-.256.508-.568.508-.313 0-.568-.229-.568-.508 0-.28.254-.508.568-.508zm13.636-9.14c1.567 0 2.841-1.139 2.841-2.54 0-1.4-1.274-2.539-2.84-2.539-1.568 0-2.842 1.139-2.842 2.54 0 1.4 1.274 2.539 2.841 2.539zm0-3.047c.313 0 .568.228.568.507 0 .28-.255.508-.568.508-.312 0-.568-.228-.568-.508 0-.279.255-.507.568-.507zM46.16 27.424c-1.567 0-2.841 1.138-2.841 2.539 0 1.4 1.274 2.539 2.84 2.539 1.568 0 2.842-1.139 2.842-2.54 0-1.4-1.274-2.538-2.841-2.538zm0 3.047c-.313 0-.568-.229-.568-.508 0-.28.255-.508.568-.508.312 0 .568.229.568.508 0 .28-.256.508-.568.508z" fill="#FFA535"/></svg>