<svg width="74" height="65" fill="none" xmlns="http://www.w3.org/2000/svg"><g clip-path="url(#clip0)" fill="#FFA535"><path d="M72.447 57.89H1.997c-.628 0-1.136-.453-1.136-1.015 0-.562.508-1.016 1.136-1.016h70.45c.629 0 1.137.454 1.137 1.016s-.508 1.016-1.137 1.016z"/><path d="M72.452 57.89c-.628 0-1.136-.453-1.136-1.015V25.378c0-.561.508-1.015 1.136-1.015.628 0 1.136.454 1.136 1.015v31.497c0 .562-.508 1.016-1.136 1.016zm-22.727 0c-.629 0-1.137-.453-1.137-1.015V25.378c0-.561.508-1.015 1.137-1.015.628 0 1.136.454 1.136 1.015v31.497c0 .562-.508 1.016-1.136 1.016zm-25 0c-.629 0-1.137-.453-1.137-1.015V25.378c0-.561.508-1.015 1.137-1.015.628 0 1.136.454 1.136 1.015v31.497c0 .562-.508 1.016-1.136 1.016zm-22.728 0c-.628 0-1.136-.453-1.136-1.015V25.378c0-.561.508-1.015 1.136-1.015.629 0 1.137.454 1.137 1.015v31.497c0 .562-.508 1.016-1.137 1.016z"/><path d="M72.45 26.394h-2.272c-.628 0-1.136-.454-1.136-1.016 0-.561.508-1.015 1.136-1.015h2.272c.628 0 1.136.454 1.136 1.015 0 .562-.508 1.016-1.136 1.016zm-68.18 0H1.998c-.628 0-1.136-.454-1.136-1.016 0-.561.508-1.015 1.136-1.015H4.27c.628 0 1.136.454 1.136 1.015 0 .562-.508 1.016-1.136 1.016zm47.729 0h-4.547c-.628 0-1.136-.454-1.136-1.016 0-.561.508-1.015 1.136-1.015h4.547c.628 0 1.136.454 1.136 1.015 0 .562-.508 1.016-1.136 1.016zm-24.999 0h-4.547c-.628 0-1.136-.454-1.136-1.016 0-.561.508-1.015 1.136-1.015H27c.628 0 1.136.454 1.136 1.015 0 .562-.508 1.016-1.136 1.016zM54.27 49.76c-.628 0-1.135-.454-1.135-1.016v-17.25c0-.56.508-1.015 1.136-1.015.628 0 1.136.454 1.136 1.016v17.25c0 .56-.508 1.015-1.136 1.015z"/><path d="M54.27 32.51c-.628 0-1.136-.454-1.136-1.015 0-1.68 1.53-3.047 3.41-3.047.628 0 1.136.454 1.136 1.015 0 .562-.508 1.016-1.136 1.016-.627 0-1.137.455-1.137 1.016 0 .561-.508 1.015-1.137 1.015zm4.546 21.312c-1.518 0-2.945-.528-4.018-1.486s-1.665-2.234-1.663-3.592c0-.561.509-1.015 1.136-1.015.628 0 1.136.455 1.136 1.015 0 .816.355 1.582.998 2.155.643.575 1.499.892 2.411.892.629 0 1.137.454 1.137 1.016 0 .561-.508 1.015-1.137 1.015zm9.087-4.062c-.628 0-1.136-.454-1.136-1.016v-17.25c0-.56.508-1.015 1.136-1.015.629 0 1.137.454 1.137 1.016v17.25c0 .56-.508 1.015-1.137 1.015z"/><path d="M67.903 32.51c-.628 0-1.136-.454-1.136-1.015 0-.56-.509-1.016-1.136-1.016-.629 0-1.137-.454-1.137-1.015 0-.562.508-1.016 1.137-1.016 1.88 0 3.409 1.367 3.409 3.047 0 .561-.508 1.015-1.137 1.015zm-4.546 21.312c-.628 0-1.136-.454-1.136-1.015 0-.562.508-1.016 1.136-1.016 1.88 0 3.41-1.367 3.41-3.047 0-.561.508-1.015 1.137-1.015.628 0 1.136.454 1.136 1.015 0 2.8-2.549 5.078-5.683 5.078z"/><path d="M65.632 30.479h-9.088c-.628 0-1.136-.454-1.136-1.016 0-.561.508-1.015 1.136-1.015h9.088c.629 0 1.137.454 1.137 1.015 0 .562-.508 1.016-1.137 1.016zM64.519 43.67h-6.84c-.302 0-.59-.107-.803-.297a.967.967 0 01-.333-.718l.001-9.131c0-.562.509-1.016 1.136-1.016h6.815c.627 0 1.136.454 1.136 1.016l.002 8.927a.92.92 0 01.022.203c0 .562-.509 1.016-1.136 1.016zm-5.704-2.031h4.545l-.001-7.1h-4.542l-.002 7.1z"/><path d="M65.632 46.717c-.476 0-.919-.27-1.077-.695l-1.136-3.047c-.199-.532.123-1.108.718-1.285.599-.178 1.24.11 1.438.642l1.136 3.047c.199.532-.123 1.108-.718 1.285-.12.036-.242.053-.36.053zm-9.09 0c-.118 0-.24-.017-.359-.053-.594-.177-.917-.752-.718-1.285l1.137-3.047c.198-.53.835-.82 1.437-.642.594.177.917.752.718 1.285l-1.136 3.047c-.16.426-.602.695-1.079.695z"/><path d="M61.087 47.732c-2.765 0-4.417-.339-5.204-1.064-.447-.413-.483-.836-.476-.998.02-.55.524-.985 1.134-.985a.4.4 0 01.037.002c.45.012.83.257 1.003.6.232.111 1.086.413 3.506.414 2.42 0 3.275-.301 3.507-.412.171-.346.552-.59 1.003-.602.012-.002.024-.002.036-.002.61 0 1.115.435 1.134.985.007.162-.028.586-.477 1-.786.724-2.44 1.062-5.203 1.062zm2.272 6.09h-4.542c-.629 0-1.137-.454-1.137-1.015 0-.562.508-1.016 1.137-1.016h4.542c.628 0 1.136.454 1.136 1.016 0 .561-.508 1.015-1.136 1.015zm5.683-10.152h-1.137c-.628 0-1.136-.454-1.136-1.016 0-.561.508-1.015 1.136-1.015h1.137c.628 0 1.136.454 1.136 1.015 0 .562-.508 1.016-1.136 1.016zm-14.772 0h-1.136c-.629 0-1.137-.454-1.137-1.016 0-.561.508-1.015 1.137-1.015h1.136c.628 0 1.136.454 1.136 1.015 0 .562-.508 1.016-1.136 1.016zm3.412-9.13c-.367 0-.729-.159-.947-.452l-2.61-3.497c-.349-.466-.208-1.097.315-1.409.52-.31 1.227-.186 1.576.282l2.61 3.496c.35.466.208 1.097-.315 1.409-.193.115-.413.17-.63.17zm6.814-.002c-.216 0-.436-.056-.63-.171-.522-.312-.663-.943-.315-1.409l2.61-3.494c.35-.468 1.055-.593 1.577-.282.523.312.663.943.315 1.409l-2.61 3.495c-.22.293-.58.452-.947.452zm-34.09-6.117c-.628 0-1.136-.454-1.136-1.015v-17.25c0-.561.508-1.015 1.136-1.015.629 0 1.137.454 1.137 1.015v17.25c0 .561-.508 1.015-1.137 1.015z"/><path d="M30.405 11.17c-.628 0-1.136-.454-1.136-1.016 0-1.679 1.53-3.045 3.41-3.045.629 0 1.137.454 1.137 1.016s-.508 1.016-1.137 1.016c-.627 0-1.137.454-1.137 1.013 0 .562-.508 1.016-1.137 1.016zm4.547 21.314c-1.518 0-2.946-.528-4.018-1.487-1.073-.959-1.665-2.234-1.664-3.591 0-.562.51-1.016 1.136-1.016.629 0 1.137.455 1.137 1.016 0 .814.354 1.58.998 2.155.643.575 1.5.892 2.41.892.63 0 1.137.454 1.137 1.015 0 .562-.508 1.016-1.136 1.016zm9.086-4.062c-.628 0-1.136-.454-1.136-1.016V10.154c0-.561.508-1.015 1.136-1.015.629 0 1.137.454 1.137 1.015v17.252c0 .562-.508 1.016-1.136 1.016z"/><path d="M44.038 11.17c-.628 0-1.136-.454-1.136-1.016 0-.56-.509-1.013-1.136-1.013-.629 0-1.137-.454-1.137-1.016s.508-1.016 1.137-1.016c1.88 0 3.409 1.366 3.409 3.045 0 .562-.508 1.016-1.136 1.016zm-4.546 21.314c-.628 0-1.136-.454-1.136-1.016 0-.561.508-1.015 1.136-1.015 1.88 0 3.41-1.367 3.41-3.047 0-.562.508-1.016 1.137-1.016.628 0 1.136.454 1.136 1.016 0 2.8-2.549 5.078-5.683 5.078z"/><path d="M41.768 9.14h-9.089c-.628 0-1.136-.453-1.136-1.015 0-.562.508-1.016 1.136-1.016h9.089c.628 0 1.136.454 1.136 1.016s-.508 1.016-1.136 1.016zm-7.953 13.192c-.303 0-.591-.107-.804-.298a.966.966 0 01-.333-.718l.001-9.13c0-.562.51-1.016 1.137-1.016h6.814c.628 0 1.137.454 1.137 1.016l.001 9.128c0 .56-.508 1.016-1.136 1.016l-6.817.002zm1.137-9.13l-.001 7.098 4.544-.002v-7.097h-4.543z"/><path d="M41.768 25.377c-.476 0-.92-.27-1.077-.695l-1.137-3.047c-.199-.532.123-1.108.718-1.285.6-.178 1.24.11 1.438.642l1.136 3.047c.2.532-.122 1.108-.718 1.285-.12.036-.24.052-.36.052zm-9.09-.001c-.118 0-.24-.017-.36-.053-.594-.177-.916-.752-.717-1.284l1.136-3.045c.199-.531.835-.822 1.437-.642.595.178.918.753.719 1.285l-1.137 3.045c-.159.426-.602.694-1.078.694z"/><path d="M37.222 26.392c-2.762 0-4.416-.338-5.202-1.063-.45-.413-.484-.837-.478-1 .021-.56.546-1.018 1.171-.983.45.012.83.257 1.003.603.232.11 1.086.412 3.506.412s3.275-.302 3.507-.412c.172-.346.552-.59 1.003-.603.605-.031 1.153.423 1.172.983.006.163-.03.587-.479 1-.786.725-2.44 1.063-5.203 1.063zm2.272 6.092h-4.542c-.628 0-1.136-.454-1.136-1.016 0-.561.508-1.015 1.136-1.015h4.542c.628 0 1.136.454 1.136 1.015 0 .562-.508 1.016-1.136 1.016zm5.683-10.154h-1.136c-.629 0-1.137-.454-1.137-1.016s.508-1.016 1.137-1.016h1.136c.629 0 1.136.454 1.136 1.016 0 .561-.507 1.015-1.136 1.015zm-14.772 0H29.27c-.628 0-1.136-.454-1.136-1.016s.508-1.016 1.136-1.016h1.137c.628 0 1.136.454 1.136 1.016 0 .561-.508 1.015-1.137 1.015zm3.411-9.13c-.367 0-.728-.157-.946-.451L30.26 9.25c-.35-.467-.209-1.097.314-1.409.523-.31 1.227-.184 1.576.282l2.61 3.499c.35.467.209 1.097-.314 1.408a1.24 1.24 0 01-.63.17zm6.815-.001c-.216 0-.436-.056-.63-.17-.522-.313-.663-.943-.314-1.41l2.61-3.496c.348-.466 1.054-.592 1.576-.282.523.312.664.943.315 1.41l-2.61 3.496c-.218.293-.58.452-.947.452zM6.544 49.76c-.629 0-1.137-.454-1.137-1.016v-17.25c0-.56.508-1.015 1.137-1.015.628 0 1.136.454 1.136 1.016v17.25c0 .56-.508 1.015-1.136 1.015z"/><path d="M6.543 32.51c-.628 0-1.136-.454-1.136-1.015 0-1.68 1.53-3.047 3.41-3.047.628 0 1.136.454 1.136 1.015 0 .562-.508 1.016-1.136 1.016-.627 0-1.138.455-1.138 1.016 0 .561-.508 1.015-1.136 1.015zm4.547 21.312c-1.519 0-2.946-.528-4.019-1.486-1.073-.959-1.665-2.234-1.664-3.592 0-.562.51-1.016 1.137-1.016.628 0 1.136.455 1.136 1.016 0 .815.355 1.581.998 2.155.643.575 1.499.892 2.411.892.629 0 1.136.454 1.136 1.015 0 .562-.507 1.016-1.136 1.016zm9.09-4.062c-.628 0-1.136-.454-1.136-1.016v-17.25c0-.561.508-1.015 1.136-1.015.629 0 1.137.454 1.137 1.016v17.249c0 .562-.508 1.016-1.137 1.016z"/><path d="M20.18 32.51c-.628 0-1.136-.454-1.136-1.015 0-.561-.51-1.016-1.136-1.016-.629 0-1.137-.454-1.137-1.016 0-.561.508-1.015 1.137-1.015 1.88 0 3.409 1.367 3.409 3.047 0 .561-.508 1.015-1.137 1.015zm-4.546 21.312c-.629 0-1.136-.454-1.136-1.015 0-.562.508-1.016 1.136-1.016 1.88 0 3.41-1.367 3.41-3.047 0-.562.508-1.016 1.136-1.016.629 0 1.137.454 1.137 1.016 0 2.8-2.549 5.078-5.683 5.078z"/><path d="M17.905 30.479H8.817c-.629 0-1.137-.454-1.137-1.016 0-.561.508-1.015 1.137-1.015h9.088c.629 0 1.137.454 1.137 1.015 0 .562-.508 1.016-1.137 1.016zM16.79 43.67H9.953c-.302 0-.59-.107-.803-.297a.967.967 0 01-.333-.718v-9.131c0-.562.51-1.016 1.137-1.016h6.815c.627 0 1.136.454 1.136 1.016l.001 8.927a.922.922 0 01.023.203c-.001.562-.509 1.016-1.137 1.016zm-5.702-2.031h4.545l-.001-7.1h-4.543v7.1z"/><path d="M17.905 46.717c-.476 0-.919-.27-1.077-.695l-1.136-3.047c-.2-.532.122-1.108.718-1.285.6-.178 1.238.11 1.437.642l1.137 3.047c.199.532-.123 1.108-.719 1.285-.12.036-.242.053-.36.053zm-9.09 0a1.26 1.26 0 01-.359-.053c-.594-.177-.917-.752-.718-1.285l1.136-3.047c.2-.53.837-.82 1.438-.642.594.177.917.752.718 1.285l-1.136 3.047c-.16.426-.603.695-1.079.695z"/><path d="M13.36 47.732c-2.765 0-4.417-.339-5.204-1.064-.448-.413-.483-.836-.476-.998.02-.55.524-.985 1.134-.985.013 0 .024 0 .036.002.45.012.831.257 1.004.6.232.111 1.086.413 3.506.414 2.42 0 3.275-.301 3.506-.412.172-.346.553-.59 1.004-.602.012-.002.024-.002.036-.002.61 0 1.115.435 1.134.985.007.162-.028.586-.477 1-.786.724-2.44 1.062-5.203 1.062zm2.272 6.09h-4.543c-.628 0-1.136-.454-1.136-1.015 0-.562.508-1.016 1.136-1.016h4.543c.628 0 1.136.454 1.136 1.016 0 .561-.508 1.015-1.136 1.015zm5.683-10.152h-1.137c-.628 0-1.136-.454-1.136-1.016 0-.561.508-1.015 1.136-1.015h1.137c.628 0 1.136.454 1.136 1.015 0 .562-.508 1.016-1.136 1.016zm-14.772 0H5.407c-.629 0-1.137-.454-1.137-1.016 0-.561.508-1.015 1.137-1.015h1.136c.628 0 1.136.454 1.136 1.015 0 .562-.508 1.016-1.136 1.016zm3.412-9.13c-.367 0-.729-.159-.947-.452l-2.61-3.497c-.349-.466-.208-1.097.315-1.409.52-.31 1.227-.186 1.576.282l2.61 3.496c.349.466.208 1.097-.315 1.409-.193.115-.413.17-.63.17zm6.814-.002c-.216 0-.437-.056-.63-.171-.523-.312-.663-.942-.315-1.409l2.61-3.494c.35-.468 1.056-.593 1.577-.282.523.312.663.943.315 1.409l-2.61 3.495c-.22.293-.58.452-.947.452zm20.455 19.286c-.629 0-1.137-.454-1.137-1.015v-17.27c0-.562.508-1.016 1.137-1.016.628 0 1.136.454 1.136 1.016v17.27c0 .561-.508 1.015-1.136 1.015z"/><path d="M37.224 53.824c-.29 0-.582-.1-.803-.298a.94.94 0 010-1.436l2.272-2.03a1.233 1.233 0 011.607 0 .94.94 0 010 1.435l-2.273 2.031a1.205 1.205 0 01-.803.298z"/><path d="M37.224 53.824c-.291 0-.582-.1-.803-.298l-2.273-2.03a.94.94 0 010-1.437 1.233 1.233 0 011.607 0l2.272 2.031a.94.94 0 010 1.436 1.205 1.205 0 01-.803.298z"/></g><defs><clipPath id="clip0"><path fill="#fff" transform="translate(.86)" d="M0 0h72.727v65H0z"/></clipPath></defs></svg>