<svg width="77" height="68" fill="none" xmlns="http://www.w3.org/2000/svg"><g clip-path="url(#clip0)" fill="#FFA535"><path d="M1.797 61.625h73.707c.657 0 1.188-.475 1.188-1.063 0-.078-.03-.147-.05-.22.02-.074.05-.143.05-.221v-3.809c0-.052-.025-.098-.033-.15-.006-.035.008-.072-.002-.108l-5.358-19.151c1.109-2.284 1.827-4.45 1.827-6.09 0-6.444-5.867-11.688-13.077-11.688-5.07 0-9.464 2.596-11.634 6.375H34.941c1.497-2.766 2.52-5.477 2.52-7.438 0-6.444-5.866-11.687-13.076-11.687-7.21 0-13.077 5.243-13.077 11.688 0 1.96 1.023 4.671 2.52 7.437h-3.71c-.029 0-.055.014-.085.016-.088.005-.17.022-.253.046-.065.018-.127.034-.188.061a1.035 1.035 0 00-.2.12 1.1 1.1 0 00-.159.128c-.049.05-.086.107-.125.165-.04.064-.076.126-.103.197-.01.026-.03.046-.038.072L.645 56.055c-.01.035.004.072-.002.109-.01.05-.035.096-.035.148v4.25c0 .588.532 1.063 1.19 1.063zM74.315 59.5H39.839v-2.125h34.476V59.5zm-.334-4.25H39.896c.576-5.881 5.952-8.591 12.665-11.968l.091-.046c2.732 3.747 5.761 6.702 7.397 6.702 2.105 0 6.513-4.89 9.63-10.068l4.302 15.38zm-13.932-34c5.9 0 10.7 4.29 10.7 9.563 0 5.37-8.595 16.168-10.7 16.977-2.105-.809-10.7-11.607-10.7-16.977 0-5.274 4.8-9.563 10.7-9.563zm-46.364-3.188c0-5.273 4.8-9.562 10.7-9.562 5.9 0 10.699 4.29 10.699 9.563 0 5.37-8.594 16.168-10.7 16.977-2.105-.809-10.699-11.607-10.699-16.977zm-2.64 9.563h4.016c3.092 4.986 7.287 9.563 9.324 9.563 2.036 0 6.232-4.577 9.323-9.563h7.963c-5.815 12.912-13.423 14.922-22.968 17.437-4.245 1.118-8.978 2.374-13.873 4.79l6.216-22.227zm-7.023 25.12c5.342-2.995 10.43-4.348 15.353-5.645 9.953-2.623 18.567-4.903 24.846-19.475h3.257a10.503 10.503 0 00-.506 3.188c0 2.715 1.96 6.87 4.428 10.615l-.004.002c-6.831 3.436-13.288 6.699-13.876 13.82H3.32l.702-2.505zm-1.036 4.63h34.475V59.5H2.986v-2.125z"/><path d="M67.182 34.018v-1.47c.728-.749 1.186-1.714 1.186-2.781 0-.01-.005-.017-.005-.026v-2.063l.003-.031c0-.588-.532-1.063-1.189-1.063-.329 0-.626.12-.842.314a1 1 0 00-.35.752v.013c-.01.58-.537 1.049-1.188 1.049H61.83c-.022 0-.039.01-.06.01-.025 0-.045-.013-.07-.013-.618 0-1.184.19-1.651.503a2.954 2.954 0 00-1.652-.503c-.025 0-.045.012-.07.014-.02-.002-.038-.011-.06-.011h-2.968c-.65 0-1.177-.469-1.187-1.049v-.013a1 1 0 00-.35-.752 1.251 1.251 0 00-.843-.314c-.657 0-1.188.475-1.188 1.063l.003.03v2.064c0 .01-.006.017-.006.026 0 1.067.458 2.032 1.187 2.78v1.47c0 3.517 3.199 6.376 7.133 6.376s7.135-2.86 7.135-6.375zm-5.944-2.67c.009-.28.215-.514.462-.514.022 0 .038-.01.06-.011.025.001.045.013.07.013h2.968c.326 0 .635-.052.936-.126-.391.7-1.193 1.186-2.124 1.186h-1.908c-.248 0-.454-.235-.463-.515l.002-.016-.003-.016zm-6.873-.639c.301.074.61.125.936.125h2.968c.025 0 .046-.011.07-.012.022 0 .039.01.06.01.247 0 .453.235.462.516l-.002.016.001.016c-.01.281-.215.515-.462.515h-1.909c-.931.001-1.733-.486-2.123-1.186zm.929 3.309v-.15c.384.09.78.153 1.196.153h1.907c.619 0 1.185-.19 1.652-.503a2.954 2.954 0 001.651.503h1.908c.417 0 .812-.064 1.196-.153v.15c0 2.344-2.133 4.25-4.755 4.25-2.623 0-4.755-1.906-4.755-4.25z"/><path d="M56.503 26.582c.001.586.531 1.061 1.189 1.061.657 0 1.188-.475 1.189-1.061.656-.001 1.188-.475 1.188-1.063 0-.587-.532-1.062-1.19-1.062h-2.375c-.657 0-1.188.474-1.188 1.062 0 .588.53 1.062 1.187 1.063zm4.755 0c.002.586.532 1.061 1.19 1.061.656 0 1.187-.475 1.188-1.061.656-.001 1.188-.475 1.188-1.063 0-.587-.532-1.062-1.19-1.062H61.26c-.658 0-1.19.474-1.19 1.062 0 .588.532 1.062 1.188 1.063zM31.54 21.267v-1.47c.728-.748 1.186-1.713 1.186-2.78 0-.01-.007-.018-.007-.026v-2.064c0-.01.005-.021.005-.03 0-.589-.532-1.063-1.19-1.063-.329 0-.626.119-.841.313a1.001 1.001 0 00-.351.752v.013c-.01.58-.536 1.049-1.188 1.049h-2.968c-.021 0-.038.01-.06.01-.025 0-.045-.012-.07-.012-.618 0-1.183.19-1.65.503a2.96 2.96 0 00-1.652-.503c-.025 0-.045.011-.07.013-.022-.002-.038-.011-.06-.011h-2.968c-.651 0-1.178-.469-1.188-1.049V14.9a1 1 0 00-.35-.752 1.251 1.251 0 00-.842-.313c-.658 0-1.189.474-1.189 1.062 0 .01.004.021.004.03v2.065c0 .009-.006.016-.006.025 0 1.068.457 2.033 1.186 2.78v1.471c0 3.516 3.2 6.375 7.133 6.375 3.934 0 7.135-2.86 7.135-6.375zm-5.945-2.67c.01-.28.215-.514.462-.514.022 0 .039-.01.06-.011.025 0 .045.013.07.013h2.969a3.9 3.9 0 00.935-.126c-.39.7-1.192 1.186-2.124 1.186h-1.909c-.246 0-.452-.235-.462-.515 0-.006.003-.01.003-.016 0-.005-.004-.01-.004-.016zm-6.874-.639c.301.074.61.126.936.126h2.969c.024 0 .045-.012.07-.013.021 0 .037.01.059.01.247 0 .453.235.463.516 0 .005-.003.01-.003.016 0 .005.003.01.003.016-.01.281-.216.515-.463.515h-1.908c-.933.001-1.735-.485-2.126-1.186zm.93 3.31v-.15c.384.088.78.152 1.196.152h1.908a2.96 2.96 0 001.652-.503 2.959 2.959 0 001.65.503h1.908a5.28 5.28 0 001.197-.153v.15c0 2.344-2.133 4.25-4.755 4.25-2.623 0-4.756-1.906-4.756-4.25z"/><path d="M20.855 13.83c.002.587.532 1.062 1.189 1.062s1.187-.475 1.188-1.062c.657 0 1.188-.475 1.188-1.062 0-.588-.531-1.063-1.189-1.063h-2.375c-.657 0-1.188.475-1.188 1.063 0 .587.53 1.061 1.187 1.062zm4.755 0c.002.587.532 1.062 1.189 1.062s1.187-.475 1.189-1.062c.656 0 1.187-.475 1.187-1.062 0-.588-.53-1.063-1.189-1.063h-2.374c-.658 0-1.19.475-1.19 1.063 0 .587.532 1.061 1.188 1.062z"/></g><defs><clipPath id="clip0"><path fill="#fff" transform="translate(.608)" d="M0 0h76.084v68H0z"/></clipPath></defs></svg>