<svg width="75" height="74" fill="none" xmlns="http://www.w3.org/2000/svg"><g clip-path="url(#clip0)" fill="#FFA535"><path d="M32.014 27.172H21.629a1.155 1.155 0 01-1.154-1.156c0-.638.516-1.157 1.154-1.157h10.385a1.156 1.156 0 010 2.313z"/><path d="M11.244 36.422a1.15 1.15 0 01-.862-.387 1.158 1.158 0 01.096-1.633l10.385-9.25a1.152 1.152 0 011.628.096c.423.477.38 1.208-.096 1.632l-10.384 9.25a1.15 1.15 0 01-.767.292zM30.86 56.078H11.245a1.154 1.154 0 01-1.154-1.156c0-.64.515-1.156 1.154-1.156H30.86c.638 0 1.154.516 1.154 1.156 0 .64-.516 1.156-1.154 1.156zm1.154-13.875a1.157 1.157 0 01-.749-2.036l8.38-7.16a1.153 1.153 0 011.627.13 1.158 1.158 0 01-.13 1.63l-8.38 7.158a1.137 1.137 0 01-.748.278z"/><path d="M30.86 56.078a1.156 1.156 0 01-.817-1.973l15.002-15.09a1.156 1.156 0 011.634 1.632L31.677 55.739c-.224.227-.52.34-.817.34zm-19.615 1.156a1.154 1.154 0 01-1.154-1.156V32.953a1.155 1.155 0 112.308 0v23.125c0 .64-.516 1.156-1.154 1.156z"/><path d="M11.245 34.11H7.783a1.155 1.155 0 01-1.154-1.157c0-.638.516-1.156 1.154-1.156h3.462c.638 0 1.154.518 1.154 1.156 0 .638-.516 1.156-1.154 1.156zm0 23.124H7.783a1.154 1.154 0 01-1.154-1.156c0-.64.516-1.156 1.154-1.156h3.462c.638 0 1.154.517 1.154 1.156 0 .64-.516 1.156-1.154 1.156z"/><path d="M7.783 60.703h-5.77A1.154 1.154 0 01.86 59.547c0-.64.516-1.156 1.154-1.156h4.615V30.64H2.014A1.155 1.155 0 01.86 29.484c0-.638.516-1.156 1.154-1.156h5.77c.638 0 1.153.518 1.153 1.156v30.063c0 .64-.515 1.156-1.154 1.156zM45.86 40.988a1.158 1.158 0 01-.824-1.966 2.891 2.891 0 00-2.06-4.913 2.83 2.83 0 00-1.843.668 1.153 1.153 0 01-1.624-.147 1.159 1.159 0 01.146-1.63 5.187 5.187 0 013.32-1.203c2.864 0 5.193 2.334 5.193 5.203a5.17 5.17 0 01-1.484 3.64 1.143 1.143 0 01-.824.348zm3.975 7.882a1.158 1.158 0 01-.833-1.955l5.256-5.51a1.154 1.154 0 011.631-.037 1.16 1.16 0 01.037 1.635l-5.256 5.511c-.226.236-.53.356-.835.356z"/><path d="M47.037 50.297a1.154 1.154 0 01-1.154-1.156c0-.64.516-1.157 1.154-1.157.696 0 1.039-.143 1.983-1.087a1.15 1.15 0 011.632 0 1.157 1.157 0 010 1.635c-1.143 1.144-2.058 1.765-3.615 1.765zm-2.994-1.427a1.15 1.15 0 01-.797-.32 1.158 1.158 0 01-.036-1.635l5.256-5.51a1.154 1.154 0 011.631-.037 1.16 1.16 0 01.036 1.635l-5.256 5.511c-.227.236-.53.356-.834.356z"/><path d="M41.245 50.297a1.154 1.154 0 01-1.154-1.156c0-.64.515-1.157 1.154-1.157.696 0 1.038-.143 1.983-1.087a1.15 1.15 0 011.631 0 1.156 1.156 0 010 1.635c-1.142 1.144-2.056 1.765-3.614 1.765z"/><path d="M47.036 50.297h-10.43a1.154 1.154 0 01-1.154-1.156c0-.64.516-1.157 1.154-1.157h10.43c.638 0 1.154.517 1.154 1.157s-.517 1.156-1.154 1.156zm24.209-6.937H43.503a1.154 1.154 0 01-1.154-1.157c0-.64.516-1.156 1.154-1.156h27.742c.636 0 1.154-.518 1.154-1.156V16.766c0-.637-.518-1.157-1.154-1.157H34.322c-.637 0-1.154.52-1.154 1.157v24.28a1.154 1.154 0 11-2.308 0v-24.28a3.47 3.47 0 013.462-3.47h36.923a3.47 3.47 0 013.461 3.47V39.89a3.47 3.47 0 01-3.461 3.468z"/><path d="M43.552 29.484h-5.769a2.312 2.312 0 01-2.308-2.312v-4.625a2.312 2.312 0 012.308-2.313h5.77a2.312 2.312 0 012.307 2.313v4.625a2.312 2.312 0 01-2.308 2.312zm0-2.312v1.156-1.156zm-5.769-4.625v4.625h5.766l.003-4.625h-5.769z"/><path d="M44.706 26.016h-8.1a1.155 1.155 0 01-1.155-1.157c0-.638.516-1.156 1.154-1.156h8.101c.639 0 1.154.518 1.154 1.156 0 .638-.515 1.157-1.154 1.157zM66.63 39.89a3.47 3.47 0 010-6.937 3.47 3.47 0 010 6.938zm0-4.624a1.157 1.157 0 000 2.312 1.157 1.157 0 000-2.312z"/><path d="M62.014 39.89a3.47 3.47 0 010-6.937 3.47 3.47 0 010 6.938zm0-4.624a1.157 1.157 0 000 2.312 1.157 1.157 0 000-2.312zm-11.539-8.094a1.155 1.155 0 01-1.153-1.156v-2.313a1.155 1.155 0 112.307 0v2.313c0 .638-.515 1.156-1.154 1.156zm3.462 0a1.155 1.155 0 01-1.154-1.156v-2.313a1.155 1.155 0 112.308 0v2.313c0 .638-.516 1.156-1.154 1.156zm3.462 0a1.155 1.155 0 01-1.154-1.156v-2.313a1.155 1.155 0 112.307 0v2.313c0 .638-.515 1.156-1.153 1.156zm4.615 0a1.155 1.155 0 01-1.154-1.156v-2.313a1.155 1.155 0 112.308 0v2.313c0 .638-.516 1.156-1.154 1.156zm3.461 0a1.155 1.155 0 01-1.153-1.156v-2.313a1.155 1.155 0 112.307 0v2.313c0 .638-.515 1.156-1.154 1.156zm3.462 0a1.155 1.155 0 01-1.154-1.156v-2.313a1.155 1.155 0 112.308 0v2.313c0 .638-.516 1.156-1.154 1.156z"/></g><defs><clipPath id="clip0"><path fill="#fff" transform="translate(.86)" d="M0 0h73.846v74H0z"/></clipPath></defs></svg>