<svg width="70" height="62" fill="none" xmlns="http://www.w3.org/2000/svg"><g clip-path="url(#clip0)" fill="#FFA535"><path d="M19.108 12.794h-.011c-.608 0-1.095.44-1.095.984s.498.984 1.107.984c.608 0 1.1-.44 1.1-.984s-.492-.984-1.1-.984zm-.001-1.968c0-.545-.493-.984-1.1-.984h-.013c-.608 0-1.095.44-1.095.984s.498.984 1.107.984c.608 0 1.101-.44 1.101-.984zm43.48 35.421v-1.97h.555c.608 0 1.101-.44 1.101-.983 0-.545-.492-.984-1.101-.984h-.555c0-.545-.493-.985-1.101-.985-.61 0-1.101.44-1.101.985h-.549c-.609 0-1.1.44-1.1.984s.491.984 1.1.984h.549v1.97c0 .543.492.983 1.1.983.61 0 1.102-.44 1.102-.984z"/><path d="M13.578 50.191c-1.82 0-3.3 1.324-3.3 2.95v7.874c0 .544.492.984 1.1.984.61 0 1.101-.44 1.101-.984v-7.873c0-.543.493-.982 1.1-.982h28.635c.606 0 1.098.44 1.098.982 0 .021.013.04.015.062v7.812c0 .544.492.984 1.101.984.61 0 1.101-.44 1.101-.984v-7.873c0-.044-.022-.082-.027-.124-.074-1.566-1.508-2.82-3.276-2.826v-3.937h1.077c4.249 0 7.708 3.091 7.708 6.889v7.87c0 .545.492.985 1.1.985.61 0 1.102-.44 1.102-.984v-7.871c0-4.885-4.446-8.858-9.91-8.858h-6.607v-4.1a17.763 17.763 0 002.835-1.829 1.11 1.11 0 00.206-.167c3.28-2.675 5.42-6.43 5.713-10.636h2.258c.61 0 1.102-.44 1.102-.984V18.7c0-.004-.004-.008-.004-.013C48.8 8.382 39.417 0 27.886 0h-1.101c-3.499 0-6.362 2.444-6.585 5.52-6.053 2.628-9.932 8.111-9.932 14.16v6.89c0 5.813 3.552 10.888 8.809 13.617v4.1l-6.605-.002c-5.466 0-9.912 3.975-9.912 8.86v7.87c0 .544.494.984 1.102.984.609 0 1.1-.441 1.1-.984v-7.87c0-3.8 3.459-6.891 7.71-6.891h1.122v3.937h-.016zm25.344-3.937h1.102v3.937h-1.102v-3.937zm-2.202 0v3.937H19.1v-3.936h.818l4.17 1.864c.007.003.013 0 .018.004.15.063.31.099.473.1h.004c.012 0 .022-.004.033-.004a1.29 1.29 0 00.27-.035c.027-.008.054-.022.08-.032a1.06 1.06 0 00.208-.087c.006-.002.013-.003.02-.007l2.693-1.605 2.693 1.605c.007.004.015.005.02.008.065.036.133.061.204.085.027.01.055.025.084.033.087.021.178.032.27.035.01 0 .022.004.032.004h.005a1.22 1.22 0 00.472-.1c.005-.003.012-.001.018-.004l4.17-1.865h.865zm-15.44-1.592v-3.504a19.32 19.32 0 006.607 1.16 19.33 19.33 0 006.607-1.16v3.503l-3.225 1.441-2.772-1.652-.003-.001a1.145 1.145 0 00-.398-.145c-.07-.013-.14 0-.21 0-.07 0-.14-.013-.21 0a1.153 1.153 0 00-.399.146l-2.774 1.652-3.223-1.44zm16.517-11.639a4.744 4.744 0 00-2.202-.548h-4.956c-.91 0-1.651-.662-1.651-1.476s.74-1.477 1.652-1.477h3.854c1.82 0 3.303 1.325 3.303 2.953v.548zM22.38 6.135v-.23c0-2.171 1.975-3.937 4.405-3.937h1.1c10.322 0 18.718 7.504 18.718 16.729l.002.01v6.879h-1.101v-6.887c0-5.97-5.434-10.826-12.113-10.826h-8.809c-.805 0-1.551.209-2.202.548V6.135zm-6.607 26.34v2.59c-2.061-2.342-3.303-5.289-3.303-8.494v-6.89c0-2.613.834-5.105 2.308-7.238a.902.902 0 00-.078.349c0 .544.498.984 1.107.984.608 0 1.101-.44 1.101-.984s-.493-.984-1.101-.984h-.012c-.347 0-.643.152-.843.379 1.308-1.803 3.09-3.328 5.226-4.431v4.054c0 .544.492.984 1.1.984.61 0 1.102-.44 1.102-.984 0-1.086.988-1.969 2.202-1.969h8.81c5.464 0 9.91 3.974 9.91 8.858v7.872c0 3.205-1.242 6.152-3.304 8.495v-2.591c0-2.713-2.47-4.92-5.505-4.92h-3.855c-1.078 0-2.052.4-2.752 1.041a4.073 4.073 0 00-2.753-1.042h-3.854c-3.036 0-5.506 2.208-5.506 4.92zm11.012-1.476c0 .814-.741 1.476-1.652 1.476h-4.955c-.805 0-1.552.208-2.203.548v-.548c0-1.628 1.483-2.953 3.304-2.953h3.854c.91 0 1.652.663 1.652 1.477zm-8.81 6.11v-.698c0-1.085.988-1.968 2.203-1.968h4.955a4.07 4.07 0 002.753-1.042c.7.64 1.675 1.042 2.753 1.042h4.955c1.214 0 2.202.883 2.202 1.968v.698c-2.682 2.018-6.138 3.24-9.91 3.24-3.773 0-7.228-1.222-9.91-3.24zm-2.179 9.145h1.101v3.937h-1.1v-3.937z"/><path d="M36.718 62c.61 0 1.102-.441 1.102-.985v-3.936c0-.544-.492-.984-1.102-.984h-17.62c-.609 0-1.101.44-1.101.984v3.936c0 .544.492.984 1.101.984.61 0 1.101-.44 1.101-.984v-2.952h15.418v2.952c0 .544.493.984 1.102.984zm24.765-.001c.609 0 1.101-.44 1.101-.984v-6.992c2.814-.465 4.955-2.671 4.955-5.319V30.497c0-.544-.492-.984-1.101-.984-.61 0-1.101.44-1.101.984h-1.101c0-.544-.493-.984-1.101-.984-.61 0-1.102.44-1.102.984h-1.1c0-.544-.493-.984-1.102-.984-.609 0-1.101.44-1.101.984h-1.101c0-.544-.493-.984-1.101-.984-.61 0-1.101.44-1.101.984v18.207c0 2.648 2.14 4.855 4.955 5.319v6.992c0 .544.492.984 1.1.984zm-3.854-29.534h1.101v.984c0 .544.492.984 1.101.984s1.101-.44 1.101-.984v-.984h1.101v.984c0 .544.492.984 1.102.984.608 0 1.1-.44 1.1-.984v-.984h1.102v1.969c0 .543-.494.984-1.101.984H58.73c-.608 0-1.101-.44-1.101-.984v-1.97zm0 16.238V37.206c.346.11.712.182 1.101.182h5.506c.388 0 .755-.071 1.1-.182v11.498c0 1.9-1.728 3.444-3.853 3.444s-3.854-1.545-3.854-3.445z"/></g><defs><clipPath id="clip0"><path fill="#fff" transform="translate(.357)" d="M0 0h69.371v62H0z"/></clipPath></defs></svg>