<svg width="644" height="625" fill="none" xmlns="http://www.w3.org/2000/svg"><path d="M401.301 17.1a45.797 45.797 0 01-19.604 38.62l-2.748 1.919c-.674-1.09-1.308-2.21-2.046-3.265-8.89-12.731-26.468-15.854-39.193-6.968a28.175 28.175 0 00-11.885 25.961c.294 2.81.417 5.642.676 8.457l-36.193 14.92c-25.468 10.507-48.926 25.736-69.018 44.89-42.257 40.359-87.998 77.795-135.938 111.273l-65.013 45.4a7.997 7.997 0 00-1.979 11.139l13.741 19.677a7.998 7.998 0 0011.14 1.979l13.74 19.677c7.576 10.849 22.57 13.512 33.419 5.936l30.551-21.335c55.877-39.02 107.514-84.222 153.729-134.351a8.038 8.038 0 005.19 2.025 8.029 8.029 0 004.698-1.447 7.839 7.839 0 001.835-1.788l8.219-11.048a23.96 23.96 0 00.422-28.055l-11.662-16.699c14.459-9.56 29.76-17.913 45.583-24.962 1.322 31.111.925 62.33-1.529 93.287-5.515 69.373-18.082 138.441-37.362 205.288l-25.796 89.488c-3.715 12.927-1.443 26.66 6.256 37.686l1.319 1.889c14.002 20.051 41.706 24.972 61.757 10.97a44.087 44.087 0 0016.402-21.533l15.091-42.524c18.146-51.117 30.554-104.374 36.891-158.26 8.757-74.497 5.967-149.613-8.311-223.255l-6.448-33.308a63.798 63.798 0 00-1.572-6.318l5.188-3.623c17.008-11.877 26.889-31.345 26.448-52.084l-15.998.341zM81.239 343.596c-3.614 2.524-8.611 1.642-11.14-1.979l-13.74-19.677 64.993-45.386c46.084-32.181 89.657-68.503 130.055-108.462l13.741 19.677c-45.995 50.249-97.527 95.504-153.357 134.492l-30.552 21.335zM324.538 103.48a332.238 332.238 0 00-56.935 31.914 7.998 7.998 0 00-1.979 11.14l16.302 23.343a8.002 8.002 0 01-.14 9.358l-1.596 2.129-21.125-30.25c-1.36-1.948-3.765-2.933-6.124-3.139-2.366-.202-4.95.89-6.613 2.588a978.53 978.53 0 01-134.137 112.874l-71.552 49.967-4.58-6.559 58.454-40.82a1171.867 1171.867 0 00137.9-112.877c18.483-17.63 40.34-31.869 63.996-41.617l31.43-12.952c.077 1.117.197 2.224.268 3.346l-3.569 1.555zm46.995-21.655l6.443 33.302a710.297 710.297 0 018.125 218.349 712.177 712.177 0 01-36.076 154.774l-15.092 42.524a28.193 28.193 0 01-10.488 13.764c-12.812 8.957-30.524 5.811-39.474-7.006l-1.319-1.889c-4.919-7.044-6.376-15.823-4-24.088l25.795-89.488a1056.057 1056.057 0 0037.935-208.45 783.66 783.66 0 00-1.646-141.876 12.176 12.176 0 015.135-11.217c5.49-3.833 13.08-2.48 16.914 3.01a47.6 47.6 0 017.748 18.291z" fill="#FFA535"/><path d="M295.376 496.543c-10.848 7.576-13.512 22.569-5.936 33.418 7.576 10.849 22.57 13.512 33.418 5.936 10.849-7.576 13.512-22.569 5.936-33.418-7.576-10.848-22.569-13.512-33.418-5.936zm18.322 26.236c-3.614 2.524-8.611 1.642-11.14-1.979-2.528-3.62-1.635-8.615 1.979-11.139 3.614-2.524 8.611-1.642 11.139 1.979 2.529 3.62 1.636 8.615-1.978 11.139z" fill="#FFA535"/></svg>