<svg width="301" height="633" fill="none" xmlns="http://www.w3.org/2000/svg"><path d="M249.794 306.949c-8.155 34.092-17.243 67.871-30.91 100.286-22.654 53.749-57.953 96.615-108.04 126.986-41.836 25.368-87.57 40.33-135.036 50.63-1.81.393-4.558-.667-6.013-2.02-18.66-17.318-38.03-33.986-55.506-52.451-30.479-32.153-54.01-68.907-67.783-111.421-16.235-50.076-15.177-100.893-5.245-151.704 6.786-34.714 15.584-69.034 23.501-103.527.309-1.286.796-2.528 1.33-4.193 18.196 12.985 37.428 21.77 60.554 22.999-1.694-2.123-2.748-3.505-3.855-4.839-16.699-20.089-22.673-43.067-17.14-68.504 8.103-37.356 30.432-64.317 63.025-83.264 4.662-2.71 9.8-4.597 14.721-6.867a8.158 8.158 0 01-1.666 4.468c-11.564 17.068-19.273 35.55-21.453 56.25-2.817 26.678 8.268 47.673 31.085 58.41 3.01 1.414 5.673 2.094 8.327-.507 2.762-2.707 5.859-2.297 9.427-1.74 3.253.508 6.947-.045 10.129-1.094 8.855-2.932 17.403-6.745 26.296-9.458 4.34-1.32 7.514-2.509 7.9-7.649.089-1.154 2.033-3.012 3.246-3.114 17.382-1.487 34.498-1.309 49.444 9.744a17.58 17.58 0 004.67 2.646c3.494 1.188 4.4 3.34 2.963 6.572-1.596 3.601.12 5.636 2.681 8.169 6.994 6.932 13.389 14.462 20.296 21.485 2.238 2.254 5.101 4.495 8.073 5.317 3.956 1.102 6.497 2.879 8.501 6.48.97 1.743 3.73 3.376 5.772 3.503 21.05 1.278 37.302-7.189 48.567-24.976 8.765-13.832 12.915-29.233 13.699-45.41.526-10.464-.206-20.995-.387-31.891 1.455 1.637 2.938 3.121 4.231 4.758 22.473 28.503 31.866 60.995 27.281 96.829-4.137 32.348-21.031 55.992-52.05 68.394-.754.299-1.448.758-2.812 1.49 21.04 9.349 42.224 10.248 64.749 6.892-4.346 18.095-8.478 35.203-12.572 52.321zM43.339 420.431c-3.078 22.166-23.683 30.702-34.407 47.13-7.018-15.641 4.6-30.636.266-46.808-6.928 8.779-11.554 17.885-15.458 27.43-6.911 16.895-7.534 34.542-6.578 52.436.655 12.169 2.12 24.63-3.678 35.972-3.349 6.538-8.148 12.333-12.09 18.163 22.495.588 50.892-15.966 57.832-35.852 3.103-8.893 3.023-18.975 3.865-28.562.568-6.589-.021-13.272.38-19.885.197-3.277 1.458-6.487 2.622-11.329 3.968 15.466 8.177 29.214 10.88 43.252 2.122 11.011-.637 17.296-10.5 33.426 1.72-.359 3.053-.514 4.305-.921 24.16-7.874 40.236-24.332 47.77-48.138 11.456-36.186 6.838-71.034-12.53-103.62-9.092-15.296-22.401-24.042-41.07-22.187-1.928.192-3.82.745-5.856 1.165.025 7.659 4.554 12.548 9.122 17.366 7.414 7.788 15.304 15.185 22.217 23.397 8.61 10.221 14.919 21.801 13.633 35.802-.697 7.553-2.54 14.982-3.864 22.47-8.324-19.932-14.545-29.865-26.861-40.707zm108.968 46.557c.675-.219 1.224-.22 1.405-.49 13.037-17.365 24.246-35.611 28.202-57.45 2.829-15.62.172-30.024-9.751-42.722a196.715 196.715 0 00-8.671-10.321c-9.533-10.645-20.158-20.453-25.311-34.398l-1.71.387c.266 4.083-.042 8.307.925 12.207 1.439 5.717 4.295 11.088 5.642 16.799 1.603 6.82 2.234 13.899 3.381 21.403l-29.745-43.095c-6.859 13.167-12.373 26.803-15.063 41.504a88.583 88.583 0 00.706 35.881c6.518 28.673 7.456 57.239-.545 85.784-.107.446.05.969.067 1.505 26.708-10.779 49.786-50.72 22.53-104.395 22.628 20.87 34.182 45.779 27.938 77.401zM23.174 307.121c-1.05 4.238-.07 6.477 3.14 9.433 7.61 6.977 16.066 5.883 24.753 3.936 1.218-.269 2.524-2.31 2.907-3.762 2.114-7.985 3.952-16.041 5.884-24.074 11.883-49.415 23.688-98.849 35.77-148.216 1.132-4.708.166-7.274-4.222-8.488-6.69-1.845-13.432-3.509-20.174-5.139-4.165-1.001-5.887.828-6.865 5.02-6.695 28.679-13.674 57.293-20.56 85.93-6.845 28.463-13.596 56.948-20.633 85.36zm191.567-33.695c-13.194-2.379-25.769-6.862-36.932-14.243-5.183-3.421-9.679-3.293-14.948-1.45.368 6.553 1.041 13.119.985 19.703-.027 3.305-.627 7.065-2.318 9.781-2.321 3.731-2.493 7.121-.584 10.583 3.744 6.674 7.374 13.518 11.985 19.586 6.281 8.27 13.889 15.539 20.12 23.841 12.461 16.574 13.961 34.257 4.5 53.05-1.81 3.605-.945 8.549-.684 12.961 19.882-41.653 29.763-86.205 40.182-130.675-7.82-1.069-15.113-1.836-22.306-3.137zm-354.759 35.727c.664-18.817 10.192-32.664 26.961-40.947 9.794-4.834 20.444-7.952 30.217-12.792 7.282-3.615 13.853-8.679 20.577-13.364 1.282-.888 2.615-3.008 2.484-4.425-.874-9.334 3.738-16.577 8.463-23.831 1.361-2.092 2.753-4.168 4.312-6.53-3.947-3.48-7.425-6.191-13.558-5.607-19.867 1.897-38.922-2.041-57.122-10.18-1.119-.5-2.317-.814-4.046-1.402-10.942 44.306-22.33 88.242-23.873 134.099 3.184-4.501 5.383-8.974 5.597-15.018l-.012-.003zM74.76 272.477c6.39.362 12.382 1.026 18.334.784 1.347-.053 3.346-3.103 3.724-5.032 2.881-14.784 5.742-29.59 7.994-44.482 1.681-11.148 2.451-22.433 3.791-35.211 7.454 28.387 5.382 55.857 4.567 83.792 13.836-1.683 26.285-5.132 37.439-12.415 1.186-.774 2.293-2.932 2.143-4.306-3.901-36.048-13.363-69.817-40.395-96.152-2.525-2.465-5.165-4.816-8.502-7.917L74.76 272.477zm91.737-70.444c18.916-1.62 36.154-7.306 50.301-20.578.327-.308.874-.369 1.941-.79-11.436 24.15-32.461 30.277-56.28 31.987l5.796 26.985c1.869-.189 3.75-.29 5.608-.577 32.253-5.01 54.957-26.468 62.335-58.864 4.235-18.593 3.086-37.04-1.523-55.388-.199-.795-.594-1.542-1.421-3.632-3.206 21.127-8.798 39.849-23.022 54.711-14.676 15.345-33.287 19.513-54.064 18.043 2.358 8.82 2.35 8.796 10.329 8.103zM-23.889 519.264c-.15-6.9-1.373-13.911-3.09-20.612-2.146-8.31-5.241-16.381-8.074-24.509-6.463-18.524-12.526-37.101-9.442-57.349-9.94 12.568-17.125 26.3-19.363 42.276-1.83 13.072-.08 25.809 4.664 38.012 6.015 15.499 12.456 30.83 18.72 46.252 9.803-3.734 16.84-13.019 16.601-24.066l-.016-.004zm-108.823-196.863c-2.892 6.962-4.714 14.966-4.588 22.451.306 17.837 2.057 35.669 3.233 53.47l1.783.275c1.678-5.001 3.673-9.922 4.971-15.019 2.104-8.34 4.27-16.724 5.491-25.224 3.526-24.546 13.732-44.762 35.738-57.77 5.06-2.991 10.181-5.878 15.584-8.988-23.75-3.717-53.934 10.936-62.212 30.805zm266.13-24.442c10.036-4.275 18.688-10.25 20.618-22.204.304-1.87.201-3.812.316-6.358-4.168 1.936-7.635 3.74-11.258 5.198-21.355 8.532-43.593 9.734-66.142 7.478-3.77-.379-5.087.625-5.794 4.101-1.281 6.272-2.935 12.472-4.531 19.11 23.367 2.471 45.575 1.716 66.791-7.325zM8.808 250.252c-12.604-7.843-23.849-17.166-31.867-29.934-1.55-2.474-2.135-4.43-.248-7.266 18.595-27.97 40.77-51.811 72.587-65.123 2.361-.99 3.434-5.06 5.106-7.695l-1.168-1.439c-1.966.45-3.96.802-5.905 1.364-24.65 7.164-45.107 21.042-61.971 40.086-7.818 8.818-14.438 18.692-21.764 27.963-2.257 2.859-2.148 5.116-.202 8.136 10.34 16.084 25.29 26.672 41.809 35.362 5.932 3.143 12.21 5.609 18.33 8.384l.53-1.137c-5.088-2.888-10.275-5.611-15.237-8.701zm-44.241-72.36c-1.073-.996-2.034-1.995-3.104-2.861-27.735-22.395-36.552-56.546-22.876-89.693 4.217-10.224 9.085-20.176 14.055-31.138-1.686.607-2.333.64-2.629.977-17.996 20.59-30.38 43.637-30.033 71.791.35 27.083 13.6 46.904 36.103 61.872 3.006-3.884 5.623-7.274 8.484-10.948zm97.788 150.987c-1.948-.601-4.542.036-6.594.774-7.348 2.638-14.612 4.894-22.512 2.179-1.011-.346-3.285.6-3.763 1.553-1.42 2.841-2.79 5.914-3.186 9.023-1.02 7.973 1.21 9.844 8.93 8.581a134.93 134.93 0 0112.262-1.397c6.975-.467 8.833-2.843 7.041-9.661 5.561 1.187 6.702 4.722 5.447 9.46l17.514 9.295c22.5-18.646 26.574-23.8 27.909-36.343-13.704 10.555-27.967 11.218-43.048 6.536zm-65.042 48.326c6.973-1.884 13.637-5.214 20.077-8.573 2.784-1.445 4.675-4.615 7.03-7.06-22.951-17.813-41.873-14.565-55.728 1.99-6.377 7.608-11.803 16.01-18.072 24.617 16.479-3.81 31.703-6.935 46.693-10.974zm-66.397-25.961c-19.646 9.633-34.059 24.136-41.742 44.937-7.003 18.953-1.16 42.982 14.106 55.004-10.493-42.755 5.334-75.5 37.114-102.393l-.763-1.128c-2.912 1.192-5.897 2.19-8.715 3.58zm236.661-6.002a263.587 263.587 0 0026.029 15.932c-2.841-5.153-5.208-10.647-8.644-15.376-4.301-5.912-9.348-11.303-14.307-16.708-7.645-8.329-14.871-16.899-18.885-27.799-4.733 18.04.922 33.59 15.807 43.951zM-47.777 242.531c2.047 5.258 4.785 10.588 8.447 14.823 14.938 17.224 34.63 27.24 55.827 34.756-1.939-1.144-3.98-2.141-5.792-3.456-11.274-8.202-23.049-15.837-33.558-24.919-8.481-7.345-14.158-16.616-13.41-29.236.24-4.026-5.209-8.395-8.528-13.303-4.208 7.366-5.713 14.322-2.986 21.335zm45.506 92.483c-5.55-7.889-9.776-15.893-9.693-25.495.01-.898-.798-1.907-1.45-2.69-4.14-4.856-8.35-9.648-12.38-14.289-4.3 7.768-3.214 15.914 6.186 43.058l17.337-.584zM-85.838 277.6c13.898-3.886 24.059-12.265 28.757-26.647-14.346 12.388-32.934 15.854-49.175 24.152-5.428 2.77-10.298 6.63-15.422 9.992l.953 1.087c11.625-2.823 23.344-5.354 34.885-8.572l.002-.012zm19.444 131.419c-20.45 19.241-28.48 55.663-15.46 79.637-.844-28.136 4.8-53.997 15.46-79.637zm71.359-21.876c10.447 7.377 26.337 10.456 34.763 6.738-16.471-15.182-20.18-15.937-34.763-6.738zm-64.355-75.34c7.775-4.252 12.365-11.049 15.585-17.842-6.974 3.741-14.441 7.878-22.024 11.816-7.78 4.023-12.813 10.096-14.79 18.118 7.084-4.053 14.093-8.193 21.23-12.092zm71.119-10.034c-8.824-4.228-17.776-8.135-26.573-12.116.845 7.495 16.692 17.371 29.467 16.78-1.17-1.985-1.667-4.077-2.894-4.664zm55.555 13.359c-1.344-.031-2.725 1.627-4.77 2.941 12.598 6.088 26.695 5.025 34.043-1.68-9.68-.453-19.463-1.03-29.271-1.269l-.002.008zm-55.221 20.609c-.559 1.663.538 3.879.905 5.85l1.587-.194c.295-1.674.45-3.387.926-5.01.476-1.623 1.28-3.201 1.938-4.797l-1.155-.904c-1.456 1.649-3.547 3.102-4.193 5.04l-.008.015z" fill="#FFA535"/></svg>