<svg width="17" height="16" fill="none" xmlns="http://www.w3.org/2000/svg"><path d="M13.944 2.343A8.176 8.176 0 008.181 0a8.175 8.175 0 00-5.764 2.343A7.943 7.943 0 00.06 7.32a7.902 7.902 0 001.315 5.083l-.24 1.993a.463.463 0 00.136.387.482.482 0 00.394.134l2.03-.236a8.27 8.27 0 005.18 1.29 8.222 8.222 0 005.07-2.314A7.874 7.874 0 0016.331 8a7.874 7.874 0 00-2.387-5.657zM12.31 12.377a3.038 3.038 0 01-2.141.87c-.81 0-1.57-.309-2.142-.87L3.722 8.15a2.926 2.926 0 01-.887-2.102c0-.794.315-1.54.887-2.102l.738-.726a.97.97 0 011.351 0l1.464 1.437a.923.923 0 010 1.326l-.234.23a.65.65 0 00-.04.898l2.085 2.046a.681.681 0 00.914-.04l.235-.229a.958.958 0 01.675-.275c.255 0 .495.098.675.275l1.464 1.437a.922.922 0 010 1.326l-.739.725z" fill="#FFA535"/><path d="M12.376 10.989l-1.464-1.437-.234.23a1.637 1.637 0 01-2.258.046l-2.1-2.061a1.565 1.565 0 01.047-2.216l.235-.23-1.464-1.437-.739.725a2.004 2.004 0 00-.607 1.44c0 .543.216 1.054.607 1.439l4.305 4.226a2.08 2.08 0 001.467.596 2.08 2.08 0 001.466-.596l.739-.726z" fill="#FFA535"/></svg>