<svg width="612" height="179" fill="none" xmlns="http://www.w3.org/2000/svg"><path opacity=".1" d="M611.998 326.561c.063 52.601-1.346 105.071-9.913 157.16-14.194 86.365-50.655 161.29-113.076 223.173-52.138 51.687-113.614 89.563-179.252 121.243-2.503 1.207-6.884.626-9.481-.839-33.301-18.719-67.409-36.242-99.383-57.051-55.749-36.217-102.975-81.584-137.984-138.779-41.255-67.365-57.54-141.877-60.875-219.493C-.244 358.948.551 305.789 0 252.687c0-1.984.275-3.968.47-6.584 31.103 12.561 62.245 18.632 96.416 12.311-3.217-2.504-5.239-4.15-7.323-5.708-31.41-23.45-48.189-54.879-49.04-93.932-1.283-57.345 21.835-104.514 62.74-143.591C109.114 9.594 115.948 5.038 122.332 0a12.24 12.24 0 01-.864 7.103c-10.883 28.958-15.646 58.629-11.565 89.595 5.251 39.909 28.788 66.651 65.844 74.312 4.888 1.007 9.012 1.063 11.972-3.662 3.079-4.919 7.742-5.407 13.143-5.845 4.925-.4 10.12-2.503 14.394-5.151 11.891-7.384 23.025-15.946 35.047-23.024 5.87-3.448 10.082-6.296 8.843-13.931-.276-1.715 1.909-5.107 3.642-5.683 24.84-8.267 49.873-14.012 75.557-3.129a26.433 26.433 0 007.742 2.222c5.513.507 7.591 3.329 6.628 8.549-1.064 5.814 2.152 8.179 6.777 10.977 12.636 7.66 24.608 16.403 37.15 24.226 4.055 2.503 9.018 4.769 13.643 4.925 6.158.219 10.489 1.922 14.676 6.471 2.028 2.203 6.628 3.618 9.65 3.086 31.161-5.52 51.901-23.575 62.096-53.478 7.935-23.256 8.586-47.182 4.055-71.057-2.904-15.452-7.666-30.56-11.753-46.393 2.697 1.877 5.382 3.523 7.842 5.457 42.788 33.701 67.89 77.81 73.773 131.701 5.313 48.646-11.04 89.069-51.944 118.045-.995.701-1.847 1.614-3.58 3.16 33.977 6.259 65.199.138 96.885-12.66.007 27.924-.018 54.335.013 80.745zM350.599 564.56c3.286 33.419-23.782 53.102-33.664 80.833-15.727-20.359-4.036-46.312-16.033-68.385-7.029 15.239-10.583 30.146-12.93 45.442-4.156 27.073 1.126 53.039 8.799 78.811 5.226 17.523 11.734 35.191 7.254 53.772-2.591 10.714-7.561 20.853-11.266 30.741 33.026-7.034 68.648-41.149 71.796-72.597 1.408-14.063-2.246-28.745-4.381-43.026-1.483-9.813-4.687-19.357-6.421-29.145-.863-4.851-.15-9.976-.15-17.449 11.215 21.172 22.18 39.753 31.048 59.286 6.959 15.32 5.138 25.459-3.592 52.451 2.384-1.127 4.274-1.821 5.958-2.854 32.487-19.964 50.166-49.616 52.807-86.991 4.018-56.813-14.944-106.035-54.635-146.783-18.631-19.126-41.117-27.218-67.703-17.962-2.747.958-5.313 2.428-8.136 3.755 2.723 11.165 11.046 16.71 19.401 22.136 13.55 8.762 27.656 16.785 40.623 26.341 16.147 11.891 29.414 26.573 32.45 47.451 1.633 11.265 1.552 22.749 2.247 34.139-19.139-26.159-31.699-38.47-53.472-49.966zm175.315 29.696c.908-.557 1.709-.751 1.878-1.208 12.93-29.909 22.88-60.462 20.99-93.713-1.351-23.782-10.282-43.865-29.214-58.91a295.896 295.896 0 00-16.271-12.016c-17.643-12.185-36.587-22.768-48.997-41.305l-2.359 1.164c1.821 5.864 2.853 12.135 5.632 17.486 4.106 7.836 10.157 14.67 14.125 22.53 4.732 9.388 8.136 19.495 12.442 30.04l-58.516-52.438c-5.388 21.616-8.649 43.445-7.416 65.837a132.952 132.952 0 0013.618 52.101c19.57 39.547 30.96 80.896 29.302 125.349 0 .688.413 1.395.626 2.171 35.184-25.096 54.842-91.465-3.755-160.213 40.335 22.511 65.931 54.798 67.915 103.125zM281.426 406.317c-.044 6.553 2.171 9.475 7.891 12.661 13.55 7.51 25.503 2.948 37.494-2.941 1.684-.82 2.873-4.256 2.923-6.509.281-12.392.138-24.789.138-37.187 0-76.265-.119-152.529.187-228.793 0-7.266-2.309-10.671-9.137-10.902-10.408-.344-20.828-.407-31.235-.419-6.428 0-8.299 3.273-8.255 9.731.294 44.19.15 88.387.15 132.583 0 43.928.144 87.855-.156 131.776zM549.095 289.95c-20.083 1.157-40.003-.971-58.878-7.823-8.762-3.173-15.277-1.409-22.318 3.129 2.835 9.431 6.121 18.775 8.349 28.4 1.12 4.832 1.565 10.527.05 15.083-2.078 6.258-1.139 11.265 2.86 15.646 7.804 8.423 15.502 17.135 24.358 24.37 12.066 9.863 25.715 17.798 37.719 27.724 23.994 19.81 32.387 45.083 25.177 75.82-1.377 5.896 1.621 12.805 3.549 19.151 14.394-67.747 13.18-136.213 12.779-204.749-11.784 1.183-22.693 2.623-33.645 3.249zM44.046 466.535c-5.632-27.687 3.411-51.231 24.971-69.198 12.592-10.489 27.036-18.775 39.597-29.264 9.356-7.83 17.166-17.524 25.334-26.717 1.558-1.746 2.759-5.307 2.071-7.329-4.55-13.311-.363-25.496 3.987-37.738 1.251-3.529 2.553-7.047 3.999-11.039-6.978-3.693-13.005-6.428-21.748-3.424-28.32 9.738-57.502 10.677-86.91 5.188-1.809-.338-3.667-.375-6.396-.625-.42 68.478-1.62 136.576 12.216 204.022 3.067-7.685 4.707-14.983 2.898-23.876h-.019zm300.489-128.859c9.45-1.715 18.424-2.848 27.023-5.289 1.947-.55 3.793-5.701 3.668-8.649-.983-22.58-2.003-45.185-3.943-67.703-1.458-16.853-4.293-33.588-6.822-52.701 20.834 38.802 27.45 79.606 36.061 120.648 19.595-7.309 36.549-16.709 50.267-31.248 1.458-1.545 2.316-5.081 1.615-7.034-18.337-51.225-43.99-97.173-92.668-126.112-4.549-2.71-9.224-5.213-15.182-8.568l-.019 186.656zm109.127-134.962c27.03-8.999 50.185-23.343 66.169-47.67.37-.563 1.146-.844 2.554-1.833-8.211 39.246-36.737 55.561-70.889 66.413l17.924 37.338c2.66-.933 5.37-1.74 7.98-2.81 45.298-18.625 70.894-57.896 70.293-107.75-.344-28.614-8.492-55.124-21.653-80.276-.57-1.09-1.409-2.04-3.349-4.8 2.735 31.949 1.146 61.225-14.394 87.898-16.028 27.537-41.718 40.148-72.547 45.292 6.534 12.041 6.515 12.01 17.912 8.198zM287.19 732.34c-2.641-10.013-6.885-19.814-11.741-28.989-6.046-11.371-13.393-22.06-20.377-32.925-15.928-24.758-31.292-49.735-33.896-80.357-10.094 21.823-15.758 44.378-13.417 68.473 1.915 19.713 8.936 37.681 20.139 53.821 14.213 20.503 28.989 40.611 43.539 60.913 12.993-8.887 20.002-24.902 15.778-40.936h-.025zM59.354 483.301c-1.777 11.172-1.627 23.488 1.183 34.365 6.703 25.916 15.515 51.318 23.475 76.878l2.698-.226c.694-7.885 1.877-15.764 1.983-23.656.144-12.905.363-25.897-.838-38.727-3.467-37.049 4.33-70.125 31.874-96.823 6.333-6.139 12.792-12.147 19.582-18.581-35.954 2.91-74.85 34.878-79.957 66.77zm379.701-129.028c13.142-9.757 23.669-21.51 22.292-39.628-.213-2.835-1.045-5.633-1.771-9.388-5.401 4.287-9.826 8.136-14.601 11.535-28.162 19.939-60.186 29.495-93.875 34.114-5.633.77-7.204 2.697-7.016 8.017.332 9.6.094 19.225.094 29.47 34.959-4.593 67.096-13.486 94.877-34.12zm-198.54-25.885c-21.141-7.022-40.817-16.678-56.995-32.493-3.129-3.067-4.669-5.714-2.91-10.514 17.317-47.332 41.305-89.895 83.054-120.48 3.098-2.271 3.236-8.586 4.75-13.017l-2.209-1.69c-2.71 1.346-5.495 2.56-8.136 4.062-33.45 19.1-58.428 46.525-76.351 80.226-8.312 15.608-14.507 32.337-21.942 48.433-2.291 4.963-1.34 8.217 2.559 11.941 20.728 19.839 46.256 30.04 73.405 36.924 9.756 2.504 19.782 3.899 29.683 5.802l.375-1.846c-8.436-2.429-16.96-4.581-25.283-7.348zm-89.933-90.051c-1.915-1.077-3.667-2.197-5.532-3.085-48.32-22.944-73.167-69.675-64.843-122.833 2.566-16.397 6.177-32.625 9.582-50.361-2.247 1.477-3.18 1.752-3.493 2.347-19.031 36.354-29.013 74.324-18.63 115.279 10.013 39.39 36.298 63.66 74.38 77.603 3.023-6.721 5.651-12.585 8.536-18.95zm195.643 185.979c-3.055-.194-6.616 1.646-9.35 3.442-9.795 6.428-19.602 12.267-32.081 11.078-1.596-.15-4.581 2.027-4.944 3.586-1.076 4.643-1.996 9.606-1.483 14.281 1.308 11.991 5.219 13.938 16.04 9.388 5.689-2.385 11.515-4.487 17.398-6.34 10.014-3.129 11.891-7.247 6.885-16.566 8.53-.219 11.434 4.538 11.265 11.891l28.813 7.416c26.285-35.097 30.422-44.046 27.969-62.815-16.291 20.208-36.868 26.179-60.512 24.639zm-77.942 93.325c9.513-5.194 18.068-12.392 26.285-19.551 3.555-3.086 5.201-8.374 7.779-12.767-39.734-17.937-66.201-6.559-80.607 22.455-6.634 13.336-11.603 27.499-17.73 42.256 22.705-11.34 43.821-21.241 64.273-32.393zm-105.979-14.582c-25.284 20.947-41.224 47.163-45.135 80.207-3.567 30.109 13.386 63.116 39.878 75.301-30.309-58.697-18.706-112.025 18.224-162.411l-1.508-1.377c-3.83 2.76-7.835 5.263-11.459 8.28zm343.177-91.785a395.46 395.46 0 0043.564 14.113c-5.951-6.522-11.334-13.706-18.005-19.401-8.349-7.116-17.605-13.212-26.736-19.357-14.075-9.469-27.624-19.439-37.306-33.933-.576 27.981 13.13 48.683 38.483 58.578zm-350.23-74.299c4.831 6.953 10.695 13.768 17.523 18.662 27.837 19.889 60.081 27.593 93.644 31.123-3.229-.989-6.559-1.727-9.663-3.01-19.326-8.011-39.183-15.02-57.702-24.583-14.951-7.742-26.485-19.276-29.821-37.951-1.064-5.958-10.545-10.42-17.11-16.415-3.555 12.222-3.311 22.899 3.129 32.174zm98.838 118.965c-10.864-9.563-19.839-19.758-23.087-33.795-.3-1.315-1.834-2.504-3.06-3.417-7.742-5.633-15.565-11.146-23.075-16.504-3.548 12.843.895 24.345 24.132 60.65l25.09-6.934zm-142.064-54.448c18.912-10.545 30.797-26.335 32.606-48.965-16.585 23.106-42.488 34.684-63.272 52.489-6.947 5.945-12.699 13.286-18.994 19.989l1.77 1.251c15.972-8.198 32.181-16.002 47.89-24.745v-.019zm74.474 184.916c-23.087 35.247-22.023 91.203 5.382 121.612-11.102-40.754-11.941-80.464-5.382-121.612zm96.435-56.951c17.83 7.097 42.094 6.014 53.083-2.366-29.358-16.372-35.034-16.172-53.083 2.366zm-120.323-87.342c9.85-8.931 14.162-20.458 16.478-31.498-8.862 7.904-18.306 16.559-27.987 24.964-9.939 8.599-15.152 19.226-15.221 31.624 8.912-8.399 17.686-16.898 26.73-25.09zm100.24-39.59c-14.357-3.073-28.789-5.633-43.02-8.355 3.861 10.639 30.447 19.488 48.878 14.144-2.404-2.485-3.862-5.364-5.858-5.789zm85.739 0c-1.971.425-3.404 3.329-5.926 5.964 20.514 4.462 40.71-2.034 49.078-14.394-14.282 2.735-28.758 5.326-43.152 8.417v.013zm-73.335 49.441c-.232 2.622 2.146 5.47 3.373 8.217l2.247-.839c-.157-2.547-.532-5.1-.407-7.635.125-2.534.745-5.119 1.145-7.679l-2.002-.914c-1.546 2.917-4.087 5.771-4.35 8.825l-.006.025z" fill="#FFA535"/></svg>