<svg width="34" height="19" fill="none" xmlns="http://www.w3.org/2000/svg"><path d="M29.746 6.782C33.13 2.025 32.379 1.936 33.21.45h-6.484s-.46 1.661-.602 1.959c-1.245 2.63-4.038 6.576-5.728 6.98-1.663.397-1.442-3.685-1.34-5.454.097-1.639.08-2.212.034-2.495a.93.93 0 00-.803-.769A22.981 22.981 0 0014.28.49l-1.504.05c.593 1.377.993.955 1.212 2.548.246 1.865.15 6.403-1.62 6.403C9.533 9.492 6.35.65 6.248.45H.513l.525 1.364c4.23 10.997 9.521 16.09 16.76 16.514l.942.028.067-.95c.102-1.467.811-3.579 2.068-3.579 1.857 0 2.394.562 3.619 2.134 1.178 1.507 1.99 2.395 3.89 2.395h4.828l-.688-1.438c-1.076-2.241-3.232-4.163-4.075-5.278-.305-.42-.605-1.083-.294-1.885.254-.7 1.01-2.157 1.592-2.973z" fill="#FFA535"/></svg>