<svg width="23" height="23" fill="none" xmlns="http://www.w3.org/2000/svg"><g clip-path="url(#clip0)" fill="#FFA535"><path d="M19.198.803H3.515a3.253 3.253 0 00-3.25 3.25v15.683a3.253 3.253 0 003.25 3.25h15.683a3.253 3.253 0 003.25-3.25V4.053a3.253 3.253 0 00-3.25-3.25zM11.4 17.7a5.855 5.855 0 01-5.849-5.85A5.855 5.855 0 0111.4 6.003a5.855 5.855 0 015.849 5.849 5.855 5.855 0 01-5.85 5.849zm6.498-10.398a1.952 1.952 0 01-1.949-1.95c0-1.075.875-1.95 1.95-1.95s1.95.875 1.95 1.95-.875 1.95-1.95 1.95z"/><path d="M17.896 4.702a.65.65 0 100 1.3.65.65 0 000-1.3zm-6.496 2.6a4.555 4.555 0 00-4.548 4.549A4.554 4.554 0 0011.4 16.4a4.554 4.554 0 004.549-4.55 4.554 4.554 0 00-4.55-4.548z"/></g><defs><clipPath id="clip0"><path fill="#fff" transform="translate(.266 .803)" d="M0 0h22.182v22.182H0z"/></clipPath></defs></svg>