<svg width="125" height="78" fill="none" xmlns="http://www.w3.org/2000/svg"><path opacity=".5" d="M118.799.398a1 1 0 00-1.401-.197l-7.187 5.417a1 1 0 001.203 1.597l6.389-4.815 4.815 6.39a1 1 0 001.597-1.204L118.799.398zM1.163 77.987c22.732-3.747 40.922-6.596 55.522-9.704 14.595-3.107 25.703-6.492 34.247-11.351 17.241-9.807 23.8-25.48 28.058-55.793l-1.98-.278c-4.242 30.188-10.683 45.014-27.067 54.332-8.268 4.703-19.13 8.037-33.675 11.134-14.54 3.095-32.663 5.933-55.43 9.686l.325 1.974z" fill="#FFA535"/></svg>