<svg width="33" height="22" fill="none" xmlns="http://www.w3.org/2000/svg"><path d="M29.503 7.78C32.918 1.935 32.16 1.826 33 0h-6.544s-.465 2.041-.607 2.407c-1.257 3.231-4.076 8.08-5.78 8.575-1.68.489-1.457-4.527-1.353-6.7.097-2.013.08-2.718.034-3.066-.069-.508-.406-.879-.81-.944C17.104.14 15.59-.05 13.893.05l-1.517.064c.598 1.691 1.002 1.173 1.223 3.13.248 2.291.15 7.867-1.635 7.867C9.104 11.11 5.892.245 5.79 0H0l.53 1.676c4.269 13.511 9.609 19.769 16.914 20.29l.95.034.069-1.167c.102-1.803.818-4.397 2.086-4.397 1.875 0 2.416.69 3.653 2.62C25.39 20.909 26.209 22 28.127 22H33l-.695-1.767c-1.085-2.754-3.262-5.115-4.111-6.484-.308-.516-.612-1.331-.298-2.317.257-.859 1.02-2.65 1.607-3.652z" fill="#696866"/></svg>